<mxfile host="65bd71144e">
    <diagram id="orqxFLYhP0BUc9gmHuvd" name="Page-1">
        <mxGraphModel dx="2519" dy="1851" grid="1" gridSize="10" guides="1" tooltips="1" connect="1" arrows="1" fold="1" page="1" pageScale="1" pageWidth="850" pageHeight="1100" math="0" shadow="0">
            <root>
                <mxCell id="0"/>
                <mxCell id="1" parent="0"/>
                <mxCell id="2" value="&lt;&lt;abstract&gt;&gt;&#10;GameObject" style="swimlane;fontStyle=1;align=center;verticalAlign=top;childLayout=stackLayout;horizontal=1;startSize=40;horizontalStack=0;resizeParent=1;resizeParentMax=0;resizeLast=0;collapsible=1;marginBottom=0;" parent="1" vertex="1">
                    <mxGeometry x="220" y="280" width="370" height="370" as="geometry"/>
                </mxCell>
                <mxCell id="3" value="- _x: float&#10;- _y: float&#10;- _gameSpeed: float&#10;- _speed: float&#10;- _sprite: MySprite" style="text;strokeColor=none;fillColor=none;align=left;verticalAlign=top;spacingLeft=4;spacingRight=4;overflow=hidden;rotatable=0;points=[[0,0.5],[1,0.5]];portConstraint=eastwest;" parent="2" vertex="1">
                    <mxGeometry y="40" width="370" height="80" as="geometry"/>
                </mxCell>
                <mxCell id="4" value="" style="line;strokeWidth=1;fillColor=none;align=left;verticalAlign=middle;spacingTop=-1;spacingLeft=3;spacingRight=3;rotatable=0;labelPosition=right;points=[];portConstraint=eastwest;strokeColor=inherit;" parent="2" vertex="1">
                    <mxGeometry y="120" width="370" height="8" as="geometry"/>
                </mxCell>
                <mxCell id="5" value="+ GameObject(float x, float y, float speed, string spriteFolderPath)&#10;&#10;+ X: float &lt;property&gt;&#10;+ Y: float &lt;property&gt;&#10;+ GameSpeed: float &lt;&lt;property&gt;&gt;&#10;+ Speed: float &lt;&lt;property&gt;&gt;&#10;+ Sprite: MySprite &lt;&lt;protected property&gt;&gt;&#10;+ CurrentBitmap: Bitmap &lt;&lt;read-only property&gt;&gt;&#10;&#10;+ Update(): &lt;&lt;virtual&gt;&gt;&#10;+ UpdateGameSpeed(float gameSpeed): &lt;&lt;virtual&gt;&gt;&#10;+ Draw(): &lt;&lt;virtual&gt;&gt;&#10;+ DrawOutline(): &lt;&lt;virtual&gt;&gt;&#10;+ PlayAnimation(string animation) &lt;&lt;virtual&gt;&gt;&#10;+ Move(): &lt;&lt;virtual&gt;&gt;&#10;+ IsOffScreen(): bool &lt;&lt;virtual&gt;&gt;" style="text;strokeColor=none;fillColor=none;align=left;verticalAlign=top;spacingLeft=4;spacingRight=4;overflow=hidden;rotatable=0;points=[[0,0.5],[1,0.5]];portConstraint=eastwest;" parent="2" vertex="1">
                    <mxGeometry y="128" width="370" height="242" as="geometry"/>
                </mxCell>
                <mxCell id="61" style="edgeStyle=none;html=1;strokeWidth=1;endArrow=block;endFill=0;endSize=12;" parent="1" source="9" target="13" edge="1">
                    <mxGeometry relative="1" as="geometry"/>
                </mxCell>
                <mxCell id="9" value="Bat" style="swimlane;fontStyle=1;align=center;verticalAlign=top;childLayout=stackLayout;horizontal=1;startSize=26;horizontalStack=0;resizeParent=1;resizeParentMax=0;resizeLast=0;collapsible=1;marginBottom=0;" parent="1" vertex="1">
                    <mxGeometry x="-330" y="830" width="230" height="80" as="geometry"/>
                </mxCell>
                <mxCell id="11" value="" style="line;strokeWidth=1;fillColor=none;align=left;verticalAlign=middle;spacingTop=-1;spacingLeft=3;spacingRight=3;rotatable=0;labelPosition=right;points=[];portConstraint=eastwest;strokeColor=inherit;" parent="9" vertex="1">
                    <mxGeometry y="26" width="230" height="8" as="geometry"/>
                </mxCell>
                <mxCell id="12" value="+ Bat(float x, float y, float gameSpeed)&#10;+ Move(): &lt;&lt;override&gt;&gt;" style="text;strokeColor=none;fillColor=none;align=left;verticalAlign=top;spacingLeft=4;spacingRight=4;overflow=hidden;rotatable=0;points=[[0,0.5],[1,0.5]];portConstraint=eastwest;" parent="9" vertex="1">
                    <mxGeometry y="34" width="230" height="46" as="geometry"/>
                </mxCell>
                <mxCell id="55" style="edgeStyle=none;html=1;strokeWidth=1;endArrow=block;endFill=0;endSize=12;exitX=0.5;exitY=0;exitDx=0;exitDy=0;" parent="1" source="13" target="2" edge="1">
                    <mxGeometry relative="1" as="geometry"/>
                </mxCell>
                <mxCell id="13" value="&lt;&lt;abstract&gt;&gt;&#10;Obstacle" style="swimlane;fontStyle=1;align=center;verticalAlign=top;childLayout=stackLayout;horizontal=1;startSize=50;horizontalStack=0;resizeParent=1;resizeParentMax=0;resizeLast=0;collapsible=1;marginBottom=0;" parent="1" vertex="1">
                    <mxGeometry x="-30" y="740" width="280" height="130" as="geometry"/>
                </mxCell>
                <mxCell id="15" value="" style="line;strokeWidth=1;fillColor=none;align=left;verticalAlign=middle;spacingTop=-1;spacingLeft=3;spacingRight=3;rotatable=0;labelPosition=right;points=[];portConstraint=eastwest;strokeColor=inherit;" parent="13" vertex="1">
                    <mxGeometry y="50" width="280" height="8" as="geometry"/>
                </mxCell>
                <mxCell id="16" value="+ Obstacle(float x, float y, float gameSpeed)&#10;&#10;+ HasPassedPlayer(Sonic sonic): bool &lt;&lt;virtual&gt;&gt;&#10;+ IsColliding(GameObject other): bool &lt;&lt;virtual&gt;&gt;&#10;" style="text;strokeColor=none;fillColor=none;align=left;verticalAlign=top;spacingLeft=4;spacingRight=4;overflow=hidden;rotatable=0;points=[[0,0.5],[1,0.5]];portConstraint=eastwest;" parent="13" vertex="1">
                    <mxGeometry y="58" width="280" height="72" as="geometry"/>
                </mxCell>
                <mxCell id="59" style="edgeStyle=none;html=1;strokeWidth=1;endArrow=block;endFill=0;endSize=12;" parent="1" source="17" target="13" edge="1">
                    <mxGeometry relative="1" as="geometry"/>
                </mxCell>
                <mxCell id="17" value="Crab" style="swimlane;fontStyle=1;align=center;verticalAlign=top;childLayout=stackLayout;horizontal=1;startSize=26;horizontalStack=0;resizeParent=1;resizeParentMax=0;resizeLast=0;collapsible=1;marginBottom=0;" parent="1" vertex="1">
                    <mxGeometry x="-330" y="660" width="230" height="60" as="geometry"/>
                </mxCell>
                <mxCell id="18" value="" style="line;strokeWidth=1;fillColor=none;align=left;verticalAlign=middle;spacingTop=-1;spacingLeft=3;spacingRight=3;rotatable=0;labelPosition=right;points=[];portConstraint=eastwest;strokeColor=inherit;" parent="17" vertex="1">
                    <mxGeometry y="26" width="230" height="8" as="geometry"/>
                </mxCell>
                <mxCell id="19" value="+ Crab(float x, float y, float gameSpeed)" style="text;strokeColor=none;fillColor=none;align=left;verticalAlign=top;spacingLeft=4;spacingRight=4;overflow=hidden;rotatable=0;points=[[0,0.5],[1,0.5]];portConstraint=eastwest;" parent="17" vertex="1">
                    <mxGeometry y="34" width="230" height="26" as="geometry"/>
                </mxCell>
                <mxCell id="62" style="edgeStyle=none;html=1;strokeWidth=1;endArrow=block;endFill=0;endSize=12;" parent="1" source="20" target="13" edge="1">
                    <mxGeometry relative="1" as="geometry"/>
                </mxCell>
                <mxCell id="20" value="Hog" style="swimlane;fontStyle=1;align=center;verticalAlign=top;childLayout=stackLayout;horizontal=1;startSize=26;horizontalStack=0;resizeParent=1;resizeParentMax=0;resizeLast=0;collapsible=1;marginBottom=0;" parent="1" vertex="1">
                    <mxGeometry x="-330" y="945" width="230" height="60" as="geometry"/>
                </mxCell>
                <mxCell id="21" value="" style="line;strokeWidth=1;fillColor=none;align=left;verticalAlign=middle;spacingTop=-1;spacingLeft=3;spacingRight=3;rotatable=0;labelPosition=right;points=[];portConstraint=eastwest;strokeColor=inherit;" parent="20" vertex="1">
                    <mxGeometry y="26" width="230" height="8" as="geometry"/>
                </mxCell>
                <mxCell id="22" value="+ Hog(float x, float y, float gameSpeed)" style="text;strokeColor=none;fillColor=none;align=left;verticalAlign=top;spacingLeft=4;spacingRight=4;overflow=hidden;rotatable=0;points=[[0,0.5],[1,0.5]];portConstraint=eastwest;" parent="20" vertex="1">
                    <mxGeometry y="34" width="230" height="26" as="geometry"/>
                </mxCell>
                <mxCell id="60" style="edgeStyle=none;html=1;strokeWidth=1;endArrow=block;endFill=0;endSize=12;" parent="1" source="23" target="13" edge="1">
                    <mxGeometry relative="1" as="geometry"/>
                </mxCell>
                <mxCell id="23" value="Spike" style="swimlane;fontStyle=1;align=center;verticalAlign=top;childLayout=stackLayout;horizontal=1;startSize=26;horizontalStack=0;resizeParent=1;resizeParentMax=0;resizeLast=0;collapsible=1;marginBottom=0;" parent="1" vertex="1">
                    <mxGeometry x="-330" y="750" width="230" height="60" as="geometry"/>
                </mxCell>
                <mxCell id="24" value="" style="line;strokeWidth=1;fillColor=none;align=left;verticalAlign=middle;spacingTop=-1;spacingLeft=3;spacingRight=3;rotatable=0;labelPosition=right;points=[];portConstraint=eastwest;strokeColor=inherit;" parent="23" vertex="1">
                    <mxGeometry y="26" width="230" height="8" as="geometry"/>
                </mxCell>
                <mxCell id="25" value="+ Spike(float x, float y, float gameSpeed)" style="text;strokeColor=none;fillColor=none;align=left;verticalAlign=top;spacingLeft=4;spacingRight=4;overflow=hidden;rotatable=0;points=[[0,0.5],[1,0.5]];portConstraint=eastwest;" parent="23" vertex="1">
                    <mxGeometry y="34" width="230" height="26" as="geometry"/>
                </mxCell>
                <mxCell id="58" style="edgeStyle=none;html=1;strokeWidth=1;endArrow=block;endFill=0;endSize=12;" parent="1" source="30" target="2" edge="1">
                    <mxGeometry relative="1" as="geometry"/>
                </mxCell>
                <mxCell id="30" value="Cloud" style="swimlane;fontStyle=1;align=center;verticalAlign=top;childLayout=stackLayout;horizontal=1;startSize=26;horizontalStack=0;resizeParent=1;resizeParentMax=0;resizeLast=0;collapsible=1;marginBottom=0;" parent="1" vertex="1">
                    <mxGeometry x="560" y="750" width="230" height="60" as="geometry"/>
                </mxCell>
                <mxCell id="31" value="" style="line;strokeWidth=1;fillColor=none;align=left;verticalAlign=middle;spacingTop=-1;spacingLeft=3;spacingRight=3;rotatable=0;labelPosition=right;points=[];portConstraint=eastwest;strokeColor=inherit;" parent="30" vertex="1">
                    <mxGeometry y="26" width="230" height="8" as="geometry"/>
                </mxCell>
                <mxCell id="32" value="+ Cloud(float x, float y, float gameSpeed)" style="text;strokeColor=none;fillColor=none;align=left;verticalAlign=top;spacingLeft=4;spacingRight=4;overflow=hidden;rotatable=0;points=[[0,0.5],[1,0.5]];portConstraint=eastwest;" parent="30" vertex="1">
                    <mxGeometry y="34" width="230" height="26" as="geometry"/>
                </mxCell>
                <mxCell id="33" value="Sonic" style="swimlane;fontStyle=1;align=center;verticalAlign=top;childLayout=stackLayout;horizontal=1;startSize=26;horizontalStack=0;resizeParent=1;resizeParentMax=0;resizeLast=0;collapsible=1;marginBottom=0;" parent="1" vertex="1">
                    <mxGeometry x="800" y="270" width="300" height="410" as="geometry"/>
                </mxCell>
                <mxCell id="34" value="- _isIdle: bool&#10;- _isJumping: bool&#10;- _isDucking: bool&#10;- _isHoldJump: bool&#10;- _velocityY: float&#10;- _floorY: float&#10;- _gravity: float&#10;- _brain: Agent" style="text;strokeColor=none;fillColor=none;align=left;verticalAlign=top;spacingLeft=4;spacingRight=4;overflow=hidden;rotatable=0;points=[[0,0.5],[1,0.5]];portConstraint=eastwest;" parent="33" vertex="1">
                    <mxGeometry y="26" width="300" height="124" as="geometry"/>
                </mxCell>
                <mxCell id="35" value="" style="line;strokeWidth=1;fillColor=none;align=left;verticalAlign=middle;spacingTop=-1;spacingLeft=3;spacingRight=3;rotatable=0;labelPosition=right;points=[];portConstraint=eastwest;strokeColor=inherit;" parent="33" vertex="1">
                    <mxGeometry y="150" width="300" height="8" as="geometry"/>
                </mxCell>
                <mxCell id="36" value="+ Sonic (float x, float y, float floorY, float gameSpeed)&#10;&#10;+ IsIdle: bool &lt;&lt;property&gt;&gt;&#10;+ IsDead: bool &lt;&lt;property&gt;&gt;&#10;+ IsJumping: bool &lt;&lt;read-only property&gt;&gt;&#10;+ IsDucking: bool &lt;&lt;read-only property&gt;&gt;&#10;&#10;+ Move(): &lt;&lt;override&gt;&gt;&#10;+ HandleInput()&#10;+ Jump()&#10;+ Duck()&#10;+ StopDucking()&#10;+ Run()&#10;+ See(List&lt;Obstacle&gt; obstacles)&#10;+ TakeAction()&#10;+ CalculateFitness()&#10;+ IsOnGround(): bool" style="text;strokeColor=none;fillColor=none;align=left;verticalAlign=top;spacingLeft=4;spacingRight=4;overflow=hidden;rotatable=0;points=[[0,0.5],[1,0.5]];portConstraint=eastwest;" parent="33" vertex="1">
                    <mxGeometry y="158" width="300" height="252" as="geometry"/>
                </mxCell>
                <mxCell id="57" style="edgeStyle=none;html=1;exitX=0.5;exitY=0;exitDx=0;exitDy=0;strokeWidth=1;endArrow=block;endFill=0;endSize=12;" parent="1" source="48" target="2" edge="1">
                    <mxGeometry relative="1" as="geometry"/>
                </mxCell>
                <mxCell id="48" value="Ground" style="swimlane;fontStyle=1;align=center;verticalAlign=top;childLayout=stackLayout;horizontal=1;startSize=26;horizontalStack=0;resizeParent=1;resizeParentMax=0;resizeLast=0;collapsible=1;marginBottom=0;" parent="1" vertex="1">
                    <mxGeometry x="280" y="750" width="250" height="100" as="geometry"/>
                </mxCell>
                <mxCell id="49" value="" style="line;strokeWidth=1;fillColor=none;align=left;verticalAlign=middle;spacingTop=-1;spacingLeft=3;spacingRight=3;rotatable=0;labelPosition=right;points=[];portConstraint=eastwest;strokeColor=inherit;" parent="48" vertex="1">
                    <mxGeometry y="26" width="250" height="8" as="geometry"/>
                </mxCell>
                <mxCell id="50" value="+ Ground(float x, float y, float gameSpeed)&#10;+ Move(): &lt;&lt;override&gt;&gt;&#10;+ Draw(): &lt;&lt;override&gt;&gt;&#10;+ IsOffScreen(): &lt;&lt;override&gt;&gt;" style="text;strokeColor=none;fillColor=none;align=left;verticalAlign=top;spacingLeft=4;spacingRight=4;overflow=hidden;rotatable=0;points=[[0,0.5],[1,0.5]];portConstraint=eastwest;" parent="48" vertex="1">
                    <mxGeometry y="34" width="250" height="66" as="geometry"/>
                </mxCell>
                <mxCell id="51" style="edgeStyle=none;html=1;exitX=0;exitY=0.5;exitDx=0;exitDy=0;entryX=1;entryY=0.5;entryDx=0;entryDy=0;endArrow=block;endFill=0;endSize=12;" parent="1" source="34" target="3" edge="1">
                    <mxGeometry relative="1" as="geometry"/>
                </mxCell>
                <mxCell id="110" style="edgeStyle=none;html=1;fontSize=17;endArrow=diamondThin;endFill=0;endSize=20;" parent="1" source="68" target="80" edge="1">
                    <mxGeometry relative="1" as="geometry"/>
                </mxCell>
                <mxCell id="111" value="*" style="edgeLabel;html=1;align=center;verticalAlign=middle;resizable=0;points=[];fontSize=17;" parent="110" vertex="1" connectable="0">
                    <mxGeometry x="-0.8051" y="3" relative="1" as="geometry">
                        <mxPoint x="9" y="4" as="offset"/>
                    </mxGeometry>
                </mxCell>
                <mxCell id="406" style="edgeStyle=none;html=1;dashed=1;fontSize=20;startArrow=none;startFill=0;endArrow=block;endFill=0;startSize=15;endSize=15;" edge="1" parent="1" source="68" target="400">
                    <mxGeometry relative="1" as="geometry"/>
                </mxCell>
                <mxCell id="68" value="Node" style="swimlane;fontStyle=1;align=center;verticalAlign=top;childLayout=stackLayout;horizontal=1;startSize=26;horizontalStack=0;resizeParent=1;resizeParentMax=0;resizeLast=0;collapsible=1;marginBottom=0;" parent="1" vertex="1">
                    <mxGeometry x="1060" y="1840" width="270" height="300" as="geometry"/>
                </mxCell>
                <mxCell id="69" value="- _innovationNum: int&#10;- _layer: int&#10;- _inputVal: double&#10;- _outputVal: double&#10;- _connections: List&lt;Connection&gt;" style="text;strokeColor=none;fillColor=none;align=left;verticalAlign=top;spacingLeft=4;spacingRight=4;overflow=hidden;rotatable=0;points=[[0,0.5],[1,0.5]];portConstraint=eastwest;" parent="68" vertex="1">
                    <mxGeometry y="26" width="270" height="84" as="geometry"/>
                </mxCell>
                <mxCell id="70" value="" style="line;strokeWidth=1;fillColor=none;align=left;verticalAlign=middle;spacingTop=-1;spacingLeft=3;spacingRight=3;rotatable=0;labelPosition=right;points=[];portConstraint=eastwest;strokeColor=inherit;" parent="68" vertex="1">
                    <mxGeometry y="110" width="270" height="8" as="geometry"/>
                </mxCell>
                <mxCell id="71" value="+ Node (int innoNum)&#10;&#10;+ InnovationNum: int &lt;&lt;property&gt;&gt;&#10;+ Layer: int &lt;&lt;property&gt;&gt;&#10;+ InputVal: double &lt;&lt;property&gt;&gt;&#10;+ OutputVal: double &lt;&lt;property&gt;&gt;&#10;+ Connections: List&lt;Connection&gt; &lt;&lt;property&gt;&gt;&#10;&#10;+ Sigmoid(double x): double&#10;+ FeedForward()&#10;+ Clone(): Node&#10;+ IsConnectedTo(Node other): bool" style="text;strokeColor=none;fillColor=none;align=left;verticalAlign=top;spacingLeft=4;spacingRight=4;overflow=hidden;rotatable=0;points=[[0,0.5],[1,0.5]];portConstraint=eastwest;" parent="68" vertex="1">
                    <mxGeometry y="118" width="270" height="182" as="geometry"/>
                </mxCell>
                <mxCell id="109" style="edgeStyle=none;html=1;fontSize=17;endArrow=diamondThin;endFill=0;endSize=20;" parent="1" target="80" edge="1" source="72">
                    <mxGeometry relative="1" as="geometry">
                        <mxPoint x="724" y="2140" as="sourcePoint"/>
                    </mxGeometry>
                </mxCell>
                <mxCell id="112" value="*" style="edgeLabel;html=1;align=center;verticalAlign=middle;resizable=0;points=[];fontSize=17;" parent="109" vertex="1" connectable="0">
                    <mxGeometry x="-0.8346" y="1" relative="1" as="geometry">
                        <mxPoint x="-10" y="8" as="offset"/>
                    </mxGeometry>
                </mxCell>
                <mxCell id="393" style="edgeStyle=none;html=1;startArrow=diamondThin;startFill=0;endArrow=diamondThin;endFill=0;endSize=15;startSize=15;" edge="1" parent="1" source="72" target="68">
                    <mxGeometry relative="1" as="geometry"/>
                </mxCell>
                <mxCell id="394" value="&lt;font style=&quot;font-size: 20px;&quot;&gt;*&lt;/font&gt;" style="edgeLabel;html=1;align=center;verticalAlign=middle;resizable=0;points=[];" vertex="1" connectable="0" parent="393">
                    <mxGeometry x="-0.7616" y="1" relative="1" as="geometry">
                        <mxPoint x="-7" y="21" as="offset"/>
                    </mxGeometry>
                </mxCell>
                <mxCell id="395" value="*" style="edgeLabel;html=1;align=center;verticalAlign=middle;resizable=0;points=[];fontSize=20;" vertex="1" connectable="0" parent="393">
                    <mxGeometry x="0.8036" y="1" relative="1" as="geometry">
                        <mxPoint y="21" as="offset"/>
                    </mxGeometry>
                </mxCell>
                <mxCell id="405" style="edgeStyle=none;html=1;dashed=1;fontSize=20;startArrow=none;startFill=0;endArrow=block;endFill=0;startSize=15;endSize=15;" edge="1" parent="1" source="72" target="400">
                    <mxGeometry relative="1" as="geometry"/>
                </mxCell>
                <mxCell id="72" value="Connection" style="swimlane;fontStyle=1;align=center;verticalAlign=top;childLayout=stackLayout;horizontal=1;startSize=26;horizontalStack=0;resizeParent=1;resizeParentMax=0;resizeLast=0;collapsible=1;marginBottom=0;" parent="1" vertex="1">
                    <mxGeometry x="410" y="1850" width="420" height="280" as="geometry"/>
                </mxCell>
                <mxCell id="73" value="- _innovationNum: int&#10;- _fromNode: Node&#10;- _toNode: Node&#10;- _weight: double&#10;- _enabled: bool" style="text;strokeColor=none;fillColor=none;align=left;verticalAlign=top;spacingLeft=4;spacingRight=4;overflow=hidden;rotatable=0;points=[[0,0.5],[1,0.5]];portConstraint=eastwest;" parent="72" vertex="1">
                    <mxGeometry y="26" width="420" height="84" as="geometry"/>
                </mxCell>
                <mxCell id="74" value="" style="line;strokeWidth=1;fillColor=none;align=left;verticalAlign=middle;spacingTop=-1;spacingLeft=3;spacingRight=3;rotatable=0;labelPosition=right;points=[];portConstraint=eastwest;strokeColor=inherit;" parent="72" vertex="1">
                    <mxGeometry y="110" width="420" height="8" as="geometry"/>
                </mxCell>
                <mxCell id="75" value="+ Connection (Node fromNode, Node toNode, double weight, int innoNum)&#10;&#10;+ InnovationNum: int &lt;&lt;property&gt;&gt;&#10;+ FromNode: Node &lt;&lt;property&gt;&gt;&#10;+ ToNode: Node &lt;&lt;property&gt;&gt;&#10;+ Weight: double &lt;&lt;property&gt;&gt;&#10;+ Enabled: bool &lt;&lt;property&gt;&gt;&#10;&#10;+ MutateWeight()&#10;+ Clone() :Connection" style="text;strokeColor=none;fillColor=none;align=left;verticalAlign=top;spacingLeft=4;spacingRight=4;overflow=hidden;rotatable=0;points=[[0,0.5],[1,0.5]];portConstraint=eastwest;" parent="72" vertex="1">
                    <mxGeometry y="118" width="420" height="162" as="geometry"/>
                </mxCell>
                <mxCell id="104" style="edgeStyle=none;html=1;fontSize=17;endArrow=diamondThin;endFill=0;endSize=20;" parent="1" source="76" target="88" edge="1">
                    <mxGeometry relative="1" as="geometry"/>
                </mxCell>
                <mxCell id="105" value="*" style="edgeLabel;html=1;align=center;verticalAlign=middle;resizable=0;points=[];fontSize=17;" parent="104" vertex="1" connectable="0">
                    <mxGeometry x="-0.531" relative="1" as="geometry">
                        <mxPoint x="10" as="offset"/>
                    </mxGeometry>
                </mxCell>
                <mxCell id="76" value="ConnectionHistory" style="swimlane;fontStyle=1;align=center;verticalAlign=top;childLayout=stackLayout;horizontal=1;startSize=26;horizontalStack=0;resizeParent=1;resizeParentMax=0;resizeLast=0;collapsible=1;marginBottom=0;" parent="1" vertex="1">
                    <mxGeometry x="-520" y="1790" width="560" height="180" as="geometry"/>
                </mxCell>
                <mxCell id="77" value="- _fromNodeId: int&#10;- _toNodeId: int&#10;- _innovationNum: int&#10;- _innovationNumbersSet: HashSet&lt;int&gt;" style="text;strokeColor=none;fillColor=none;align=left;verticalAlign=top;spacingLeft=4;spacingRight=4;overflow=hidden;rotatable=0;points=[[0,0.5],[1,0.5]];portConstraint=eastwest;" parent="76" vertex="1">
                    <mxGeometry y="26" width="560" height="74" as="geometry"/>
                </mxCell>
                <mxCell id="78" value="" style="line;strokeWidth=1;fillColor=none;align=left;verticalAlign=middle;spacingTop=-1;spacingLeft=3;spacingRight=3;rotatable=0;labelPosition=right;points=[];portConstraint=eastwest;strokeColor=inherit;" parent="76" vertex="1">
                    <mxGeometry y="100" width="560" height="8" as="geometry"/>
                </mxCell>
                <mxCell id="79" value="+ ConnectionHistory(int fromNodeId, int toNode, int innovationNum, HashSet&lt;int&gt; innovationNumbers)&#10;&#10;+ InnovationNum: int &lt;&lt;read-only property&gt;&gt;&#10;+ IsMatching(Genome g, Node fromNode, Node toNode): bool" style="text;strokeColor=none;fillColor=none;align=left;verticalAlign=top;spacingLeft=4;spacingRight=4;overflow=hidden;rotatable=0;points=[[0,0.5],[1,0.5]];portConstraint=eastwest;" parent="76" vertex="1">
                    <mxGeometry y="108" width="560" height="72" as="geometry"/>
                </mxCell>
                <mxCell id="404" style="edgeStyle=none;html=1;fontSize=20;startArrow=none;startFill=0;endArrow=block;endFill=0;startSize=15;endSize=15;dashed=1;" edge="1" parent="1" source="80" target="400">
                    <mxGeometry relative="1" as="geometry"/>
                </mxCell>
                <mxCell id="80" value="Genome" style="swimlane;fontStyle=1;align=center;verticalAlign=top;childLayout=stackLayout;horizontal=1;startSize=26;horizontalStack=0;resizeParent=1;resizeParentMax=0;resizeLast=0;collapsible=1;marginBottom=0;" parent="1" vertex="1">
                    <mxGeometry x="670" y="2280" width="500" height="480" as="geometry">
                        <mxRectangle x="960" y="1480" width="90" height="30" as="alternateBounds"/>
                    </mxGeometry>
                </mxCell>
                <mxCell id="81" value="- _nodes: List&lt;Node&gt;&#10;- _connections: List&lt;Connection&gt;&#10;- _networkNodes: List&lt;Node&gt;&#10;- _inputSize: int&#10;- _outputSize: int&#10;- _totalLayers: int&#10;- _nextNodeIndex: int&#10;- _biasNodeIndex: int" style="text;strokeColor=none;fillColor=none;align=left;verticalAlign=top;spacingLeft=4;spacingRight=4;overflow=hidden;rotatable=0;points=[[0,0.5],[1,0.5]];portConstraint=eastwest;" parent="80" vertex="1">
                    <mxGeometry y="26" width="500" height="124" as="geometry"/>
                </mxCell>
                <mxCell id="82" value="" style="line;strokeWidth=1;fillColor=none;align=left;verticalAlign=middle;spacingTop=-1;spacingLeft=3;spacingRight=3;rotatable=0;labelPosition=right;points=[];portConstraint=eastwest;strokeColor=inherit;" parent="80" vertex="1">
                    <mxGeometry y="150" width="500" height="8" as="geometry"/>
                </mxCell>
                <mxCell id="83" value="+ Genome(int inputSize, int outputSize, bool isCrossOver)&#10;&#10;+ Nodes: List&lt;Node&gt; &lt;&lt;property&gt;&gt;&#10;+ Connections: List&lt;Connection&gt; &lt;&lt;property&gt;&gt;&#10;+ TotalLayers: int &lt;&lt;property&gt;&gt;&#10;+ NextNodeIndex: int &lt;&lt;property&gt;&gt;&#10;+ BiasNodeIndex: int &lt;&lt;property&gt;&gt;&#10;&#10;- CreateNodes()&#10;- IsFullyConnected(): bool&#10;- CannotConnectNodes(int fromNodeIndex, int toNodeIndex): bool&#10;+ ConnectNodes()&#10;+ GetNodeByInnovationNum(int id): Node&#10;+ CreateNetwork()&#10;+ FeedForward(double[] inputs): double[]&#10;+ AddConnection(List&lt;ConnectionHistory&gt; innoHistory)&#10;+ AddNode(List&lt;ConnectionHistory&gt; innoHistory)&#10;+ GetInnovationNum(List&lt;ConnectionHistory&gt; innoHistory, Node fromNode, Node toNode)&#10;+ Mutate(List&lt;ConnectionHistory&gt; innoHistory)&#10;+ CrossOver(Genome other): Genome&#10;+ GetMatchingConnection(Genome other, int innoNum): int&#10;+ Clone(): Genome&#10;" style="text;strokeColor=none;fillColor=none;align=left;verticalAlign=top;spacingLeft=4;spacingRight=4;overflow=hidden;rotatable=0;points=[[0,0.5],[1,0.5]];portConstraint=eastwest;" parent="80" vertex="1">
                    <mxGeometry y="158" width="500" height="322" as="geometry"/>
                </mxCell>
                <mxCell id="99" value="*" style="edgeStyle=none;html=1;fontSize=17;endArrow=diamondThin;endFill=0;endSize=20;" parent="1" source="84" target="91" edge="1">
                    <mxGeometry x="-0.6364" y="-10" relative="1" as="geometry">
                        <mxPoint as="offset"/>
                    </mxGeometry>
                </mxCell>
                <mxCell id="84" value="Species" style="swimlane;fontStyle=1;align=center;verticalAlign=top;childLayout=stackLayout;horizontal=1;startSize=26;horizontalStack=0;resizeParent=1;resizeParentMax=0;resizeLast=0;collapsible=1;marginBottom=0;" parent="1" vertex="1">
                    <mxGeometry x="-415" y="2480" width="350" height="400" as="geometry"/>
                </mxCell>
                <mxCell id="85" value="- _agents: List&lt;Agent&gt;&#10;- _representative: Agent&#10;- _benchmarkGenome: Genome&#10;- _topFitness: double&#10;- _averageFitness: double&#10;- _notImprovedGenerations: int" style="text;strokeColor=none;fillColor=none;align=left;verticalAlign=top;spacingLeft=4;spacingRight=4;overflow=hidden;rotatable=0;points=[[0,0.5],[1,0.5]];portConstraint=eastwest;" parent="84" vertex="1">
                    <mxGeometry y="26" width="350" height="94" as="geometry"/>
                </mxCell>
                <mxCell id="86" value="" style="line;strokeWidth=1;fillColor=none;align=left;verticalAlign=middle;spacingTop=-1;spacingLeft=3;spacingRight=3;rotatable=0;labelPosition=right;points=[];portConstraint=eastwest;strokeColor=inherit;" parent="84" vertex="1">
                    <mxGeometry y="120" width="350" height="8" as="geometry"/>
                </mxCell>
                <mxCell id="87" value="+ Species(Agent representative)&#10;&#10;+ Agents: List&lt;Agent&gt; &lt;&lt;property&gt;&gt;&#10;+ TopFitness: double &lt;&lt;property&gt;&gt;&#10;+ AverageFitness: double &lt;&lt;property&gt;&gt;&#10;+ NotImprovedGenerations: int &lt;&lt;property&gt;&gt;&#10;+ Representative: Agent &lt;&lt;read-only property&gt;&gt;&#10;&#10;- CalculateExcessAndDisjoint(Genome g1, Genome g2): double&#10;- CalculateAverageWeightDiff(Genome g1, Genome g2)&#10;+ IsInSpecies(Genome genome): bool&#10;+ Add(Agent agent)&#10;+ SortAgents()&#10;+ KillWeakAgents()&#10;+ CalculateFitness()&#10;+ FitnessSharing()&#10;+ SelectRandomAgent(): Agent&#10;+ Reproduce(List&lt;ConnectionHistory&gt; innoHistory): Agent" style="text;strokeColor=none;fillColor=none;align=left;verticalAlign=top;spacingLeft=4;spacingRight=4;overflow=hidden;rotatable=0;points=[[0,0.5],[1,0.5]];portConstraint=eastwest;" parent="84" vertex="1">
                    <mxGeometry y="128" width="350" height="272" as="geometry"/>
                </mxCell>
                <mxCell id="88" value="Neat" style="swimlane;fontStyle=1;align=center;verticalAlign=top;childLayout=stackLayout;horizontal=1;startSize=26;horizontalStack=0;resizeParent=1;resizeParentMax=0;resizeLast=0;collapsible=1;marginBottom=0;" parent="1" vertex="1">
                    <mxGeometry x="-390" y="2050" width="300" height="320" as="geometry"/>
                </mxCell>
                <mxCell id="89" value="- _inputSize: int&#10;- _outputSize: int&#10;- _species: List&lt;Species&gt;&#10;- _agents: List&lt;Agent&gt;&#10;- _innovationHistory: List&lt;ConnectionHistory&gt;" style="text;strokeColor=none;fillColor=none;align=left;verticalAlign=top;spacingLeft=4;spacingRight=4;overflow=hidden;rotatable=0;points=[[0,0.5],[1,0.5]];portConstraint=eastwest;" parent="88" vertex="1">
                    <mxGeometry y="26" width="300" height="84" as="geometry"/>
                </mxCell>
                <mxCell id="90" value="" style="line;strokeWidth=1;fillColor=none;align=left;verticalAlign=middle;spacingTop=-1;spacingLeft=3;spacingRight=3;rotatable=0;labelPosition=right;points=[];portConstraint=eastwest;strokeColor=inherit;" parent="88" vertex="1">
                    <mxGeometry y="110" width="300" height="8" as="geometry"/>
                </mxCell>
                <mxCell id="91" value="+ Neat(int inputSize, int ouputSize, int populationSize)&#10;&#10;+ Agents: List&lt;Agent&gt; &lt;&lt;read-only property&gt;&gt;&#10;&#10;- CreateSpecies()&#10;- SortSpecies()&#10;- KillWeakAgents()&#10;- KillUnfitSpecies()&#10;- KillExtinctSpecies()&#10;- CalculateAverageFitnessSum(): double&#10;- Reproduce()&#10;- SelectRandomSpecies()&#10;+ Evolve()" style="text;strokeColor=none;fillColor=none;align=left;verticalAlign=top;spacingLeft=4;spacingRight=4;overflow=hidden;rotatable=0;points=[[0,0.5],[1,0.5]];portConstraint=eastwest;" parent="88" vertex="1">
                    <mxGeometry y="118" width="300" height="202" as="geometry"/>
                </mxCell>
                <mxCell id="100" style="edgeStyle=none;html=1;fontSize=17;endArrow=diamondThin;endFill=0;endSize=20;entryX=1;entryY=0.5;entryDx=0;entryDy=0;exitX=0.25;exitY=0;exitDx=0;exitDy=0;" parent="1" source="92" target="89" edge="1">
                    <mxGeometry relative="1" as="geometry">
                        <Array as="points">
                            <mxPoint x="190" y="2120"/>
                        </Array>
                    </mxGeometry>
                </mxCell>
                <mxCell id="101" value="*" style="edgeLabel;html=1;align=center;verticalAlign=middle;resizable=0;points=[];fontSize=17;" parent="100" vertex="1" connectable="0">
                    <mxGeometry x="-0.9352" y="-2" relative="1" as="geometry">
                        <mxPoint x="10" y="-4" as="offset"/>
                    </mxGeometry>
                </mxCell>
                <mxCell id="407" style="edgeStyle=none;html=1;dashed=1;fontSize=20;startArrow=none;startFill=0;endArrow=block;endFill=0;startSize=15;endSize=15;" edge="1" parent="1" source="92" target="400">
                    <mxGeometry relative="1" as="geometry">
                        <Array as="points">
                            <mxPoint x="255" y="1670"/>
                        </Array>
                    </mxGeometry>
                </mxCell>
                <mxCell id="92" value="Agent" style="swimlane;fontStyle=1;align=center;verticalAlign=top;childLayout=stackLayout;horizontal=1;startSize=26;horizontalStack=0;resizeParent=1;resizeParentMax=0;resizeLast=0;collapsible=1;marginBottom=0;" parent="1" vertex="1">
                    <mxGeometry x="120" y="2250" width="270" height="230" as="geometry"/>
                </mxCell>
                <mxCell id="93" value="- _genome: Genome&#10;- _fitness: double" style="text;strokeColor=none;fillColor=none;align=left;verticalAlign=top;spacingLeft=4;spacingRight=4;overflow=hidden;rotatable=0;points=[[0,0.5],[1,0.5]];portConstraint=eastwest;" parent="92" vertex="1">
                    <mxGeometry y="26" width="270" height="44" as="geometry"/>
                </mxCell>
                <mxCell id="94" value="" style="line;strokeWidth=1;fillColor=none;align=left;verticalAlign=middle;spacingTop=-1;spacingLeft=3;spacingRight=3;rotatable=0;labelPosition=right;points=[];portConstraint=eastwest;strokeColor=inherit;" parent="92" vertex="1">
                    <mxGeometry y="70" width="270" height="8" as="geometry"/>
                </mxCell>
                <mxCell id="95" value="+ Agent(Genome genome)&#10;+ Agent(int inputSize, int outputSize)&#10;&#10;+ Genome: Genome &lt;&lt;read-only property&gt;&gt;&#10;+ Fitness: double &lt;&lt;property&gt;&gt;&#10;&#10;+ FeedForward(double[] inputs) double[]&#10;+ CrossOver(Agent other): Agent&#10;+ Mutate(List&lt;ConnectionHistory&gt; innoHistory)&#10;+ Clone(): Agent" style="text;strokeColor=none;fillColor=none;align=left;verticalAlign=top;spacingLeft=4;spacingRight=4;overflow=hidden;rotatable=0;points=[[0,0.5],[1,0.5]];portConstraint=eastwest;" parent="92" vertex="1">
                    <mxGeometry y="78" width="270" height="152" as="geometry"/>
                </mxCell>
                <mxCell id="107" style="edgeStyle=none;html=1;fontSize=17;endArrow=diamondThin;endFill=1;endSize=20;" parent="1" source="81" target="92" edge="1">
                    <mxGeometry relative="1" as="geometry"/>
                </mxCell>
                <mxCell id="108" value="1" style="edgeLabel;html=1;align=center;verticalAlign=middle;resizable=0;points=[];fontSize=17;" parent="107" vertex="1" connectable="0">
                    <mxGeometry x="-0.869" y="-2" relative="1" as="geometry">
                        <mxPoint y="-13" as="offset"/>
                    </mxGeometry>
                </mxCell>
                <mxCell id="113" value="Agent" style="swimlane;fontStyle=1;align=center;verticalAlign=top;childLayout=stackLayout;horizontal=1;startSize=26;horizontalStack=0;resizeParent=1;resizeParentMax=0;resizeLast=0;collapsible=1;marginBottom=0;" parent="1" vertex="1" collapsed="1">
                    <mxGeometry x="915" y="160" width="70" height="30" as="geometry">
                        <mxRectangle x="930" y="30" width="270" height="230" as="alternateBounds"/>
                    </mxGeometry>
                </mxCell>
                <mxCell id="114" value="- _genome: Genome&#10;- _fitness: double" style="text;strokeColor=none;fillColor=none;align=left;verticalAlign=top;spacingLeft=4;spacingRight=4;overflow=hidden;rotatable=0;points=[[0,0.5],[1,0.5]];portConstraint=eastwest;" parent="113" vertex="1">
                    <mxGeometry y="26" width="270" height="44" as="geometry"/>
                </mxCell>
                <mxCell id="115" value="" style="line;strokeWidth=1;fillColor=none;align=left;verticalAlign=middle;spacingTop=-1;spacingLeft=3;spacingRight=3;rotatable=0;labelPosition=right;points=[];portConstraint=eastwest;strokeColor=inherit;" parent="113" vertex="1">
                    <mxGeometry y="70" width="270" height="8" as="geometry"/>
                </mxCell>
                <mxCell id="116" value="+ Agent(Genome genome)&#10;+ Agent(int inputSize, int outputSize)&#10;&#10;+ Genome: Genome &lt;&lt;read-only property&gt;&gt;&#10;+ Fitness: double &lt;&lt;property&gt;&gt;&#10;&#10;+ FeedForward(double[] inputs) double[]&#10;+ CrossOver(Agent other): Agent&#10;+ Mutate(List&lt;ConnectionHistory&gt; innoHistory)&#10;+ Clone(): Agent" style="text;strokeColor=none;fillColor=none;align=left;verticalAlign=top;spacingLeft=4;spacingRight=4;overflow=hidden;rotatable=0;points=[[0,0.5],[1,0.5]];portConstraint=eastwest;" parent="113" vertex="1">
                    <mxGeometry y="78" width="270" height="152" as="geometry"/>
                </mxCell>
                <mxCell id="117" style="edgeStyle=none;html=1;entryX=0.5;entryY=0;entryDx=0;entryDy=0;endArrow=diamondThin;endFill=0;endSize=15;exitX=0.5;exitY=1;exitDx=0;exitDy=0;" parent="1" source="113" target="33" edge="1">
                    <mxGeometry relative="1" as="geometry">
                        <mxPoint x="1270" y="318" as="sourcePoint"/>
                    </mxGeometry>
                </mxCell>
                <mxCell id="118" value="&lt;font style=&quot;font-size: 15px;&quot;&gt;0...1&lt;/font&gt;" style="edgeLabel;html=1;align=center;verticalAlign=middle;resizable=0;points=[];" parent="117" vertex="1" connectable="0">
                    <mxGeometry x="-0.8527" y="-2" relative="1" as="geometry">
                        <mxPoint x="22" y="14" as="offset"/>
                    </mxGeometry>
                </mxCell>
                <mxCell id="120" value="Population" style="swimlane;fontStyle=1;align=center;verticalAlign=top;childLayout=stackLayout;horizontal=1;startSize=26;horizontalStack=0;resizeParent=1;resizeParentMax=0;resizeLast=0;collapsible=1;marginBottom=0;" parent="1" vertex="1">
                    <mxGeometry x="1290" y="290" width="300" height="330" as="geometry"/>
                </mxCell>
                <mxCell id="121" value="- _sonics: Sonic[]&#10;- _generation: int&#10;- _bestSonicIndex: int&#10;- _alives: int&#10;- _bestFitness: double" style="text;strokeColor=none;fillColor=none;align=left;verticalAlign=top;spacingLeft=4;spacingRight=4;overflow=hidden;rotatable=0;points=[[0,0.5],[1,0.5]];portConstraint=eastwest;" parent="120" vertex="1">
                    <mxGeometry y="26" width="300" height="84" as="geometry"/>
                </mxCell>
                <mxCell id="122" value="" style="line;strokeWidth=1;fillColor=none;align=left;verticalAlign=middle;spacingTop=-1;spacingLeft=3;spacingRight=3;rotatable=0;labelPosition=right;points=[];portConstraint=eastwest;strokeColor=inherit;" parent="120" vertex="1">
                    <mxGeometry y="110" width="300" height="8" as="geometry"/>
                </mxCell>
                <mxCell id="123" value="+ Population(int populationSize)&#10;&#10;+ Data: Sonic[] &lt;&lt;read-only property&gt;&gt;&#10;+ Generation: int &lt;&lt;read-only property&gt;&gt;&#10;+ BestSonicIndex: int &lt;&lt;read-only property&gt;&gt;&#10;+ BestBrain: Genome &lt;&lt;read-only property&gt;&gt;&#10;+ Alives: int &lt;&lt;property&gt;&gt;&#10;+ BestFitness: double &lt;&lt;read-only property&gt;&gt;&#10;&#10;+ Update(List&lt;Obstacle&gt; obstacles)&#10;+ UpdateGameSpeed(float gameSpeed)&#10;+ Draw()&#10;+ Reset()&#10;+ LinkBrains(Neat neat)&#10;" style="text;strokeColor=none;fillColor=none;align=left;verticalAlign=top;spacingLeft=4;spacingRight=4;overflow=hidden;rotatable=0;points=[[0,0.5],[1,0.5]];portConstraint=eastwest;" parent="120" vertex="1">
                    <mxGeometry y="118" width="300" height="212" as="geometry"/>
                </mxCell>
                <mxCell id="124" style="edgeStyle=none;html=1;exitX=1;exitY=0.5;exitDx=0;exitDy=0;endArrow=diamondThin;endFill=1;endSize=15;" parent="1" source="34" target="121" edge="1">
                    <mxGeometry relative="1" as="geometry"/>
                </mxCell>
                <mxCell id="125" value="&lt;font style=&quot;font-size: 18px;&quot;&gt;*&lt;/font&gt;" style="edgeLabel;html=1;align=center;verticalAlign=middle;resizable=0;points=[];" parent="124" vertex="1" connectable="0">
                    <mxGeometry x="-0.8316" y="2" relative="1" as="geometry">
                        <mxPoint y="-16" as="offset"/>
                    </mxGeometry>
                </mxCell>
                <mxCell id="130" style="edgeStyle=none;html=1;fontSize=18;endArrow=diamondThin;endFill=1;endSize=15;" parent="1" source="126" target="2" edge="1">
                    <mxGeometry relative="1" as="geometry"/>
                </mxCell>
                <mxCell id="132" value="1" style="edgeLabel;html=1;align=center;verticalAlign=middle;resizable=0;points=[];fontSize=18;" parent="130" vertex="1" connectable="0">
                    <mxGeometry x="-0.7636" y="-2" relative="1" as="geometry">
                        <mxPoint x="12" as="offset"/>
                    </mxGeometry>
                </mxCell>
                <mxCell id="126" value="MySprite" style="swimlane;fontStyle=1;align=center;verticalAlign=top;childLayout=stackLayout;horizontal=1;startSize=26;horizontalStack=0;resizeParent=1;resizeParentMax=0;resizeLast=0;collapsible=1;marginBottom=0;" parent="1" vertex="1" collapsed="1">
                    <mxGeometry x="360" y="140" width="90" height="30" as="geometry">
                        <mxRectangle x="220" y="-70" width="300" height="240" as="alternateBounds"/>
                    </mxGeometry>
                </mxCell>
                <mxCell id="127" value="- _animations: Dictionary&lt;string, List&lt;Bitmap&gt;&gt;&#10;- _animation_length: Dictionary&lt;string, int&gt;&#10;- _current_animation: string&#10;- _current_animation_frame: int&#10;- _animation_timer: int" style="text;strokeColor=none;fillColor=none;align=left;verticalAlign=top;spacingLeft=4;spacingRight=4;overflow=hidden;rotatable=0;points=[[0,0.5],[1,0.5]];portConstraint=eastwest;" parent="126" vertex="1">
                    <mxGeometry y="26" width="300" height="84" as="geometry"/>
                </mxCell>
                <mxCell id="128" value="" style="line;strokeWidth=1;fillColor=none;align=left;verticalAlign=middle;spacingTop=-1;spacingLeft=3;spacingRight=3;rotatable=0;labelPosition=right;points=[];portConstraint=eastwest;strokeColor=inherit;" parent="126" vertex="1">
                    <mxGeometry y="110" width="300" height="8" as="geometry"/>
                </mxCell>
                <mxCell id="129" value="+ MySprite(string folderPath)&#10;&#10;+ CurrentBitMap: Bitmap &lt;&lt;read-only property&gt;&gt;&#10;&#10;- LoadSetting(string folderPath)&#10;+ Update()&#10;+ Draw(float x, float y)&#10;+ Play(string animation)" style="text;strokeColor=none;fillColor=none;align=left;verticalAlign=top;spacingLeft=4;spacingRight=4;overflow=hidden;rotatable=0;points=[[0,0.5],[1,0.5]];portConstraint=eastwest;" parent="126" vertex="1">
                    <mxGeometry y="118" width="300" height="122" as="geometry"/>
                </mxCell>
                <mxCell id="133" value="MyButton" style="swimlane;fontStyle=1;align=center;verticalAlign=top;childLayout=stackLayout;horizontal=1;startSize=26;horizontalStack=0;resizeParent=1;resizeParentMax=0;resizeLast=0;collapsible=1;marginBottom=0;" parent="1" vertex="1">
                    <mxGeometry x="-260" y="3100" width="290" height="220" as="geometry"/>
                </mxCell>
                <mxCell id="134" value="- _buttonBitmap: Bitmap&#10;- _x: double&#10;- _y: double" style="text;strokeColor=none;fillColor=none;align=left;verticalAlign=top;spacingLeft=4;spacingRight=4;overflow=hidden;rotatable=0;points=[[0,0.5],[1,0.5]];portConstraint=eastwest;" parent="133" vertex="1">
                    <mxGeometry y="26" width="290" height="54" as="geometry"/>
                </mxCell>
                <mxCell id="135" value="" style="line;strokeWidth=1;fillColor=none;align=left;verticalAlign=middle;spacingTop=-1;spacingLeft=3;spacingRight=3;rotatable=0;labelPosition=right;points=[];portConstraint=eastwest;strokeColor=inherit;" parent="133" vertex="1">
                    <mxGeometry y="80" width="290" height="8" as="geometry"/>
                </mxCell>
                <mxCell id="136" value="+ MyButton(string bitmapPath, double x, double y)&#10;&#10;+ X: double &lt;&lt;property&gt;&gt;&#10;+ Y: double &lt;&lt;property&gt;&gt;&#10;&#10;+ Draw()&#10;+ IsClicked(): bool&#10;+ IsHovered(): bool" style="text;strokeColor=none;fillColor=none;align=left;verticalAlign=top;spacingLeft=4;spacingRight=4;overflow=hidden;rotatable=0;points=[[0,0.5],[1,0.5]];portConstraint=eastwest;" parent="133" vertex="1">
                    <mxGeometry y="88" width="290" height="132" as="geometry"/>
                </mxCell>
                <mxCell id="137" value="MySprite" style="swimlane;fontStyle=1;align=center;verticalAlign=top;childLayout=stackLayout;horizontal=1;startSize=26;horizontalStack=0;resizeParent=1;resizeParentMax=0;resizeLast=0;collapsible=1;marginBottom=0;" parent="1" vertex="1">
                    <mxGeometry x="190" y="3100" width="300" height="240" as="geometry"/>
                </mxCell>
                <mxCell id="138" value="- _animations: Dictionary&lt;string, List&lt;Bitmap&gt;&gt;&#10;- _animation_length: Dictionary&lt;string, int&gt;&#10;- _current_animation: string&#10;- _current_animation_frame: int&#10;- _animation_timer: int" style="text;strokeColor=none;fillColor=none;align=left;verticalAlign=top;spacingLeft=4;spacingRight=4;overflow=hidden;rotatable=0;points=[[0,0.5],[1,0.5]];portConstraint=eastwest;" parent="137" vertex="1">
                    <mxGeometry y="26" width="300" height="84" as="geometry"/>
                </mxCell>
                <mxCell id="139" value="" style="line;strokeWidth=1;fillColor=none;align=left;verticalAlign=middle;spacingTop=-1;spacingLeft=3;spacingRight=3;rotatable=0;labelPosition=right;points=[];portConstraint=eastwest;strokeColor=inherit;" parent="137" vertex="1">
                    <mxGeometry y="110" width="300" height="8" as="geometry"/>
                </mxCell>
                <mxCell id="140" value="+ MySprite(string folderPath)&#10;&#10;+ CurrentBitMap: Bitmap &lt;&lt;read-only property&gt;&gt;&#10;&#10;- LoadSetting(string folderPath)&#10;+ Update()&#10;+ Draw(float x, float y)&#10;+ Play(string animation)" style="text;strokeColor=none;fillColor=none;align=left;verticalAlign=top;spacingLeft=4;spacingRight=4;overflow=hidden;rotatable=0;points=[[0,0.5],[1,0.5]];portConstraint=eastwest;" parent="137" vertex="1">
                    <mxGeometry y="118" width="300" height="122" as="geometry"/>
                </mxCell>
                <mxCell id="141" value="Ultility" style="swimlane;fontStyle=1;align=center;verticalAlign=top;childLayout=stackLayout;horizontal=1;startSize=26;horizontalStack=0;resizeParent=1;resizeParentMax=0;resizeLast=0;collapsible=1;marginBottom=0;" parent="1" vertex="1">
                    <mxGeometry x="600" y="3100" width="470" height="100" as="geometry"/>
                </mxCell>
                <mxCell id="143" value="" style="line;strokeWidth=1;fillColor=none;align=left;verticalAlign=middle;spacingTop=-1;spacingLeft=3;spacingRight=3;rotatable=0;labelPosition=right;points=[];portConstraint=eastwest;strokeColor=inherit;" parent="141" vertex="1">
                    <mxGeometry y="26" width="470" height="8" as="geometry"/>
                </mxCell>
                <mxCell id="144" value="+ NormalizePath(string path): string&#10;+ Sigmoid(double x): double&#10;+ RandomGaussian(): double&#10;+ Normalize(double value, double min, double max, double newMin, double newMax)" style="text;strokeColor=none;fillColor=none;align=left;verticalAlign=top;spacingLeft=4;spacingRight=4;overflow=hidden;rotatable=0;points=[[0,0.5],[1,0.5]];portConstraint=eastwest;" parent="141" vertex="1">
                    <mxGeometry y="34" width="470" height="66" as="geometry"/>
                </mxCell>
                <mxCell id="145" value="ScreenManager" style="swimlane;fontStyle=1;align=center;verticalAlign=top;childLayout=stackLayout;horizontal=1;startSize=26;horizontalStack=0;resizeParent=1;resizeParentMax=0;resizeLast=0;collapsible=1;marginBottom=0;" parent="1" vertex="1">
                    <mxGeometry x="195" y="3480" width="290" height="200" as="geometry"/>
                </mxCell>
                <mxCell id="146" value="- _instance: ScreenManager&#10;- _lock: object&#10;- _currentState: IScreenState" style="text;strokeColor=none;fillColor=none;align=left;verticalAlign=top;spacingLeft=4;spacingRight=4;overflow=hidden;rotatable=0;points=[[0,0.5],[1,0.5]];portConstraint=eastwest;" parent="145" vertex="1">
                    <mxGeometry y="26" width="290" height="54" as="geometry"/>
                </mxCell>
                <mxCell id="147" value="" style="line;strokeWidth=1;fillColor=none;align=left;verticalAlign=middle;spacingTop=-1;spacingLeft=3;spacingRight=3;rotatable=0;labelPosition=right;points=[];portConstraint=eastwest;strokeColor=inherit;" parent="145" vertex="1">
                    <mxGeometry y="80" width="290" height="8" as="geometry"/>
                </mxCell>
                <mxCell id="148" value="- ScreenManager()&#10;&#10;+ Instance: ScreenManager &lt;&lt;read-only property&gt;&gt;&#10;&#10;+ SetState(IScreenState state)&#10;+ Update()&#10;+ Draw()" style="text;strokeColor=none;fillColor=none;align=left;verticalAlign=top;spacingLeft=4;spacingRight=4;overflow=hidden;rotatable=0;points=[[0,0.5],[1,0.5]];portConstraint=eastwest;" parent="145" vertex="1">
                    <mxGeometry y="88" width="290" height="112" as="geometry"/>
                </mxCell>
                <mxCell id="210" style="edgeStyle=none;html=1;fontSize=18;endArrow=diamondThin;endFill=0;endSize=15;" parent="1" source="149" target="145" edge="1">
                    <mxGeometry relative="1" as="geometry"/>
                </mxCell>
                <mxCell id="211" value="1" style="edgeLabel;html=1;align=center;verticalAlign=middle;resizable=0;points=[];fontSize=18;" parent="210" vertex="1" connectable="0">
                    <mxGeometry x="-0.7544" relative="1" as="geometry">
                        <mxPoint x="15" as="offset"/>
                    </mxGeometry>
                </mxCell>
                <mxCell id="149" value="&lt;&lt;interface&gt;&gt;&#10;IScreenState" style="swimlane;fontStyle=1;align=center;verticalAlign=top;childLayout=stackLayout;horizontal=1;startSize=40;horizontalStack=0;resizeParent=1;resizeParentMax=0;resizeLast=0;collapsible=1;marginBottom=0;" parent="1" vertex="1">
                    <mxGeometry x="235" y="3790" width="210" height="120" as="geometry"/>
                </mxCell>
                <mxCell id="151" value="" style="line;strokeWidth=1;fillColor=none;align=left;verticalAlign=middle;spacingTop=-1;spacingLeft=3;spacingRight=3;rotatable=0;labelPosition=right;points=[];portConstraint=eastwest;strokeColor=inherit;" parent="149" vertex="1">
                    <mxGeometry y="40" width="210" height="8" as="geometry"/>
                </mxCell>
                <mxCell id="152" value="+ EnterState()&#10;+ Update()&#10;+ Draw()&#10;+ ExitState()" style="text;strokeColor=none;fillColor=none;align=left;verticalAlign=top;spacingLeft=4;spacingRight=4;overflow=hidden;rotatable=0;points=[[0,0.5],[1,0.5]];portConstraint=eastwest;" parent="149" vertex="1">
                    <mxGeometry y="48" width="210" height="72" as="geometry"/>
                </mxCell>
                <mxCell id="212" style="edgeStyle=none;html=1;fontSize=18;endArrow=block;endFill=0;endSize=15;dashed=1;" parent="1" source="153" target="149" edge="1">
                    <mxGeometry relative="1" as="geometry"/>
                </mxCell>
                <mxCell id="153" value="MainMenuState" style="swimlane;fontStyle=1;align=center;verticalAlign=top;childLayout=stackLayout;horizontal=1;startSize=26;horizontalStack=0;resizeParent=1;resizeParentMax=0;resizeLast=0;collapsible=1;marginBottom=0;" parent="1" vertex="1">
                    <mxGeometry x="-425" y="4160" width="300" height="190" as="geometry"/>
                </mxCell>
                <mxCell id="154" value="-  _buttons: Dictionary&lt;string, MyButton&gt;&#10;_ _uiBitmaps: Dictionary&lt;string, Bitmap&gt;&#10;- _environmentManager: EnvironmentManager" style="text;strokeColor=none;fillColor=none;align=left;verticalAlign=top;spacingLeft=4;spacingRight=4;overflow=hidden;rotatable=0;points=[[0,0.5],[1,0.5]];portConstraint=eastwest;" parent="153" vertex="1">
                    <mxGeometry y="26" width="300" height="54" as="geometry"/>
                </mxCell>
                <mxCell id="155" value="" style="line;strokeWidth=1;fillColor=none;align=left;verticalAlign=middle;spacingTop=-1;spacingLeft=3;spacingRight=3;rotatable=0;labelPosition=right;points=[];portConstraint=eastwest;strokeColor=inherit;" parent="153" vertex="1">
                    <mxGeometry y="80" width="300" height="8" as="geometry"/>
                </mxCell>
                <mxCell id="156" value="+ MainMenuState(EnvironmentManager envManager)&#10;&#10;+ EnterState()&#10;+ Update()&#10;+ Draw()&#10;+ ExitState()" style="text;strokeColor=none;fillColor=none;align=left;verticalAlign=top;spacingLeft=4;spacingRight=4;overflow=hidden;rotatable=0;points=[[0,0.5],[1,0.5]];portConstraint=eastwest;" parent="153" vertex="1">
                    <mxGeometry y="88" width="300" height="102" as="geometry"/>
                </mxCell>
                <mxCell id="229" style="edgeStyle=none;html=1;fontSize=18;endArrow=diamondThin;endFill=0;endSize=15;" parent="1" source="157" target="153" edge="1">
                    <mxGeometry relative="1" as="geometry"/>
                </mxCell>
                <mxCell id="238" value="1" style="edgeLabel;html=1;align=center;verticalAlign=middle;resizable=0;points=[];fontSize=18;" parent="229" vertex="1" connectable="0">
                    <mxGeometry x="-0.8241" y="2" relative="1" as="geometry">
                        <mxPoint x="-12" y="15" as="offset"/>
                    </mxGeometry>
                </mxCell>
                <mxCell id="230" style="edgeStyle=none;html=1;fontSize=18;endArrow=diamondThin;endFill=0;endSize=15;" parent="1" source="157" target="161" edge="1">
                    <mxGeometry relative="1" as="geometry"/>
                </mxCell>
                <mxCell id="239" value="1" style="edgeLabel;html=1;align=center;verticalAlign=middle;resizable=0;points=[];fontSize=18;" parent="230" vertex="1" connectable="0">
                    <mxGeometry x="-0.9224" relative="1" as="geometry">
                        <mxPoint x="-2" y="19" as="offset"/>
                    </mxGeometry>
                </mxCell>
                <mxCell id="232" style="edgeStyle=none;html=1;fontSize=18;endArrow=diamondThin;endFill=0;endSize=15;" parent="1" target="189" edge="1">
                    <mxGeometry relative="1" as="geometry">
                        <Array as="points">
                            <mxPoint x="565" y="4120"/>
                        </Array>
                        <mxPoint x="-215" y="3980" as="sourcePoint"/>
                    </mxGeometry>
                </mxCell>
                <mxCell id="240" value="1" style="edgeLabel;html=1;align=center;verticalAlign=middle;resizable=0;points=[];fontSize=18;" parent="232" vertex="1" connectable="0">
                    <mxGeometry x="-0.9741" y="3" relative="1" as="geometry">
                        <mxPoint x="21" y="-10" as="offset"/>
                    </mxGeometry>
                </mxCell>
                <mxCell id="157" value="EnvironmentManager" style="swimlane;fontStyle=1;align=center;verticalAlign=top;childLayout=stackLayout;horizontal=1;startSize=26;horizontalStack=0;resizeParent=1;resizeParentMax=0;resizeLast=0;collapsible=1;marginBottom=0;" parent="1" vertex="1" collapsed="1">
                    <mxGeometry x="-355" y="3950" width="160" height="30" as="geometry">
                        <mxRectangle x="80" y="3825" width="270" height="220" as="alternateBounds"/>
                    </mxGeometry>
                </mxCell>
                <mxCell id="158" value="- _clouds: List&lt;Clouds&gt;&#10;- _ground: Ground&#10;- _cloudTimer&#10;- _nextCloudInterval: double&#10;- _gameSpeed: float" style="text;strokeColor=none;fillColor=none;align=left;verticalAlign=top;spacingLeft=4;spacingRight=4;overflow=hidden;rotatable=0;points=[[0,0.5],[1,0.5]];portConstraint=eastwest;" parent="157" vertex="1">
                    <mxGeometry y="26" width="270" height="84" as="geometry"/>
                </mxCell>
                <mxCell id="159" value="" style="line;strokeWidth=1;fillColor=none;align=left;verticalAlign=middle;spacingTop=-1;spacingLeft=3;spacingRight=3;rotatable=0;labelPosition=right;points=[];portConstraint=eastwest;strokeColor=inherit;" parent="157" vertex="1">
                    <mxGeometry y="110" width="270" height="8" as="geometry"/>
                </mxCell>
                <mxCell id="160" value="+ EnvironmentSpawner(float gameSpeed)&#10;&#10;+ Update()&#10;+ UpdateGameSpeed(double speed)&#10;- SetNextCloudInterval()&#10;+ Draw()&#10;" style="text;strokeColor=none;fillColor=none;align=left;verticalAlign=top;spacingLeft=4;spacingRight=4;overflow=hidden;rotatable=0;points=[[0,0.5],[1,0.5]];portConstraint=eastwest;" parent="157" vertex="1">
                    <mxGeometry y="118" width="270" height="102" as="geometry"/>
                </mxCell>
                <mxCell id="214" style="edgeStyle=none;html=1;fontSize=18;endArrow=block;endFill=0;endSize=15;dashed=1;" parent="1" source="161" target="149" edge="1">
                    <mxGeometry relative="1" as="geometry"/>
                </mxCell>
                <mxCell id="161" value="GameScreenState" style="swimlane;fontStyle=1;align=center;verticalAlign=top;childLayout=stackLayout;horizontal=1;startSize=26;horizontalStack=0;resizeParent=1;resizeParentMax=0;resizeLast=0;collapsible=1;marginBottom=0;" parent="1" vertex="1">
                    <mxGeometry x="142.5" y="4150" width="395" height="510" as="geometry"/>
                </mxCell>
                <mxCell id="162" value="- _currentState: ISubScreenState&#10;- _sonic: Sonic&#10;- _obstacleManager: ObstacleManager&#10;- _environmentManager: EnvironmentManager&#10;- _score: double&#10;- _lastScoreMileStone: double&#10;- _gameSpeed: float&#10;- _gameSpeedIncrement: float&#10;- _buttons: Dictionary&lt;string, MyButton&gt;&#10;- _uiBitmaps: Dictionary&lt;string, Bitmap&gt;" style="text;strokeColor=none;fillColor=none;align=left;verticalAlign=top;spacingLeft=4;spacingRight=4;overflow=hidden;rotatable=0;points=[[0,0.5],[1,0.5]];portConstraint=eastwest;" parent="161" vertex="1">
                    <mxGeometry y="26" width="395" height="154" as="geometry"/>
                </mxCell>
                <mxCell id="163" value="" style="line;strokeWidth=1;fillColor=none;align=left;verticalAlign=middle;spacingTop=-1;spacingLeft=3;spacingRight=3;rotatable=0;labelPosition=right;points=[];portConstraint=eastwest;strokeColor=inherit;" parent="161" vertex="1">
                    <mxGeometry y="180" width="395" height="8" as="geometry"/>
                </mxCell>
                <mxCell id="164" value="+ GameScreenState(EnvironmentManager envManager)&#10;&#10;+ Sonic: Sonic &lt;&lt;read-only property&gt;&gt;&#10;+ ObstacleManager: ObstacleManager &lt;&lt;read-only property&gt;&gt;&#10;+ EnvironmentManager: EnvironmentManager &lt;&lt;read-only property&gt;&gt;&#10;+ Buttons: Dictionary&lt;string, MyButton&gt; &lt;&lt;read-only property&gt;&gt;&#10;+ UIBitmaps: Dictionary&lt;string, Bitmap&gt; &lt;&lt;read-only property&gt;&gt;&#10;&#10;+ EnterState()&#10;+ Update()&#10;+ Draw()&#10;+ ExitState()&#10;+ SetState(ISubScreenState newState)&#10;+ UpdateGameSpeed(float gameSpeed)&#10;- IncreaseGameSpeed()&#10;+ CheckUpdateGameSpeed()&#10;+ ResumeGameSpeed()&#10;+ UpdateScore()&#10;- DrawScore()&#10;- SaveHighScore()&#10;- GetHighScore(): double&#10;" style="text;strokeColor=none;fillColor=none;align=left;verticalAlign=top;spacingLeft=4;spacingRight=4;overflow=hidden;rotatable=0;points=[[0,0.5],[1,0.5]];portConstraint=eastwest;" parent="161" vertex="1">
                    <mxGeometry y="188" width="395" height="322" as="geometry"/>
                </mxCell>
                <mxCell id="389" style="edgeStyle=none;html=1;fontSize=20;endArrow=diamondThin;endFill=0;endSize=15;" parent="1" source="166" target="161" edge="1">
                    <mxGeometry relative="1" as="geometry"/>
                </mxCell>
                <mxCell id="391" value="1" style="edgeLabel;html=1;align=center;verticalAlign=middle;resizable=0;points=[];fontSize=20;" parent="389" vertex="1" connectable="0">
                    <mxGeometry x="-0.9037" y="-1" relative="1" as="geometry">
                        <mxPoint x="15" as="offset"/>
                    </mxGeometry>
                </mxCell>
                <mxCell id="390" style="edgeStyle=none;html=1;fontSize=20;endArrow=diamondThin;endFill=0;endSize=15;" parent="1" source="166" target="189" edge="1">
                    <mxGeometry relative="1" as="geometry"/>
                </mxCell>
                <mxCell id="392" value="1" style="edgeLabel;html=1;align=center;verticalAlign=middle;resizable=0;points=[];fontSize=20;" parent="390" vertex="1" connectable="0">
                    <mxGeometry x="-0.8528" y="1" relative="1" as="geometry">
                        <mxPoint x="7" y="11" as="offset"/>
                    </mxGeometry>
                </mxCell>
                <mxCell id="166" value="&lt;&lt;interface&gt;&gt;&#10;ISubScreenState" style="swimlane;fontStyle=1;align=center;verticalAlign=top;childLayout=stackLayout;horizontal=1;startSize=40;horizontalStack=0;resizeParent=1;resizeParentMax=0;resizeLast=0;collapsible=1;marginBottom=0;" parent="1" vertex="1">
                    <mxGeometry x="565" y="5045" width="210" height="90" as="geometry"/>
                </mxCell>
                <mxCell id="167" value="" style="line;strokeWidth=1;fillColor=none;align=left;verticalAlign=middle;spacingTop=-1;spacingLeft=3;spacingRight=3;rotatable=0;labelPosition=right;points=[];portConstraint=eastwest;strokeColor=inherit;" parent="166" vertex="1">
                    <mxGeometry y="40" width="210" height="8" as="geometry"/>
                </mxCell>
                <mxCell id="168" value="+ Update()&#10;+ Draw()" style="text;strokeColor=none;fillColor=none;align=left;verticalAlign=top;spacingLeft=4;spacingRight=4;overflow=hidden;rotatable=0;points=[[0,0.5],[1,0.5]];portConstraint=eastwest;" parent="166" vertex="1">
                    <mxGeometry y="48" width="210" height="42" as="geometry"/>
                </mxCell>
                <mxCell id="292" style="edgeStyle=none;html=1;fontSize=20;endArrow=block;endFill=0;endSize=15;dashed=1;exitX=1;exitY=0.5;exitDx=0;exitDy=0;entryX=0.122;entryY=0.004;entryDx=0;entryDy=0;entryPerimeter=0;" parent="1" source="170" target="166" edge="1">
                    <mxGeometry relative="1" as="geometry"/>
                </mxCell>
                <mxCell id="306" style="edgeStyle=none;html=1;fontSize=20;endArrow=classic;endFill=1;endSize=15;" parent="1" source="169" target="164" edge="1">
                    <mxGeometry relative="1" as="geometry"/>
                </mxCell>
                <mxCell id="169" value="OpeningSceneState" style="swimlane;fontStyle=1;align=center;verticalAlign=top;childLayout=stackLayout;horizontal=1;startSize=26;horizontalStack=0;resizeParent=1;resizeParentMax=0;resizeLast=0;collapsible=1;marginBottom=0;" parent="1" vertex="1">
                    <mxGeometry x="75" y="4780" width="290" height="100" as="geometry"/>
                </mxCell>
                <mxCell id="170" value="- _context: GameScreenState" style="text;strokeColor=none;fillColor=none;align=left;verticalAlign=top;spacingLeft=4;spacingRight=4;overflow=hidden;rotatable=0;points=[[0,0.5],[1,0.5]];portConstraint=eastwest;" parent="169" vertex="1">
                    <mxGeometry y="26" width="290" height="24" as="geometry"/>
                </mxCell>
                <mxCell id="171" value="" style="line;strokeWidth=1;fillColor=none;align=left;verticalAlign=middle;spacingTop=-1;spacingLeft=3;spacingRight=3;rotatable=0;labelPosition=right;points=[];portConstraint=eastwest;strokeColor=inherit;" parent="169" vertex="1">
                    <mxGeometry y="50" width="290" height="8" as="geometry"/>
                </mxCell>
                <mxCell id="174" value="+ Update()&#10;+ Draw()" style="text;strokeColor=none;fillColor=none;align=left;verticalAlign=top;spacingLeft=4;spacingRight=4;overflow=hidden;rotatable=0;points=[[0,0.5],[1,0.5]];portConstraint=eastwest;" parent="169" vertex="1">
                    <mxGeometry y="58" width="290" height="42" as="geometry"/>
                </mxCell>
                <mxCell id="293" style="edgeStyle=none;html=1;dashed=1;fontSize=20;endArrow=block;endFill=0;endSize=15;" parent="1" source="175" target="166" edge="1">
                    <mxGeometry relative="1" as="geometry"/>
                </mxCell>
                <mxCell id="309" style="edgeStyle=none;html=1;exitX=0;exitY=0.25;exitDx=0;exitDy=0;fontSize=20;endArrow=classic;endFill=1;endSize=15;" parent="1" source="175" target="164" edge="1">
                    <mxGeometry relative="1" as="geometry">
                        <Array as="points">
                            <mxPoint x="5" y="4780"/>
                        </Array>
                    </mxGeometry>
                </mxCell>
                <mxCell id="175" value="IdleState" style="swimlane;fontStyle=1;align=center;verticalAlign=top;childLayout=stackLayout;horizontal=1;startSize=26;horizontalStack=0;resizeParent=1;resizeParentMax=0;resizeLast=0;collapsible=1;marginBottom=0;" parent="1" vertex="1">
                    <mxGeometry x="75" y="4980" width="290" height="100" as="geometry"/>
                </mxCell>
                <mxCell id="176" value="- _context: GameScreenState" style="text;strokeColor=none;fillColor=none;align=left;verticalAlign=top;spacingLeft=4;spacingRight=4;overflow=hidden;rotatable=0;points=[[0,0.5],[1,0.5]];portConstraint=eastwest;" parent="175" vertex="1">
                    <mxGeometry y="26" width="290" height="24" as="geometry"/>
                </mxCell>
                <mxCell id="177" value="" style="line;strokeWidth=1;fillColor=none;align=left;verticalAlign=middle;spacingTop=-1;spacingLeft=3;spacingRight=3;rotatable=0;labelPosition=right;points=[];portConstraint=eastwest;strokeColor=inherit;" parent="175" vertex="1">
                    <mxGeometry y="50" width="290" height="8" as="geometry"/>
                </mxCell>
                <mxCell id="178" value="+ Update()&#10;+ Draw()" style="text;strokeColor=none;fillColor=none;align=left;verticalAlign=top;spacingLeft=4;spacingRight=4;overflow=hidden;rotatable=0;points=[[0,0.5],[1,0.5]];portConstraint=eastwest;" parent="175" vertex="1">
                    <mxGeometry y="58" width="290" height="42" as="geometry"/>
                </mxCell>
                <mxCell id="294" style="edgeStyle=none;html=1;dashed=1;fontSize=20;endArrow=block;endFill=0;endSize=15;" parent="1" source="179" target="166" edge="1">
                    <mxGeometry relative="1" as="geometry"/>
                </mxCell>
                <mxCell id="310" style="edgeStyle=none;html=1;exitX=0;exitY=0.25;exitDx=0;exitDy=0;fontSize=20;endArrow=classic;endFill=1;endSize=15;" parent="1" source="179" target="164" edge="1">
                    <mxGeometry relative="1" as="geometry">
                        <Array as="points">
                            <mxPoint x="-75" y="4780"/>
                        </Array>
                    </mxGeometry>
                </mxCell>
                <mxCell id="179" value="PlayingState" style="swimlane;fontStyle=1;align=center;verticalAlign=top;childLayout=stackLayout;horizontal=1;startSize=26;horizontalStack=0;resizeParent=1;resizeParentMax=0;resizeLast=0;collapsible=1;marginBottom=0;" parent="1" vertex="1">
                    <mxGeometry x="75" y="5160" width="290" height="100" as="geometry"/>
                </mxCell>
                <mxCell id="180" value="- _context: GameScreenState" style="text;strokeColor=none;fillColor=none;align=left;verticalAlign=top;spacingLeft=4;spacingRight=4;overflow=hidden;rotatable=0;points=[[0,0.5],[1,0.5]];portConstraint=eastwest;" parent="179" vertex="1">
                    <mxGeometry y="26" width="290" height="24" as="geometry"/>
                </mxCell>
                <mxCell id="181" value="" style="line;strokeWidth=1;fillColor=none;align=left;verticalAlign=middle;spacingTop=-1;spacingLeft=3;spacingRight=3;rotatable=0;labelPosition=right;points=[];portConstraint=eastwest;strokeColor=inherit;" parent="179" vertex="1">
                    <mxGeometry y="50" width="290" height="8" as="geometry"/>
                </mxCell>
                <mxCell id="182" value="+ Update()&#10;+ Draw()" style="text;strokeColor=none;fillColor=none;align=left;verticalAlign=top;spacingLeft=4;spacingRight=4;overflow=hidden;rotatable=0;points=[[0,0.5],[1,0.5]];portConstraint=eastwest;" parent="179" vertex="1">
                    <mxGeometry y="58" width="290" height="42" as="geometry"/>
                </mxCell>
                <mxCell id="295" style="edgeStyle=none;html=1;dashed=1;fontSize=20;endArrow=block;endFill=0;endSize=15;" parent="1" source="183" target="166" edge="1">
                    <mxGeometry relative="1" as="geometry"/>
                </mxCell>
                <mxCell id="312" style="edgeStyle=none;html=1;exitX=0;exitY=0.25;exitDx=0;exitDy=0;fontSize=20;endArrow=classic;endFill=1;endSize=15;" parent="1" source="183" target="164" edge="1">
                    <mxGeometry relative="1" as="geometry">
                        <Array as="points">
                            <mxPoint x="-155" y="4770"/>
                        </Array>
                    </mxGeometry>
                </mxCell>
                <mxCell id="183" value="GameOverState" style="swimlane;fontStyle=1;align=center;verticalAlign=top;childLayout=stackLayout;horizontal=1;startSize=26;horizontalStack=0;resizeParent=1;resizeParentMax=0;resizeLast=0;collapsible=1;marginBottom=0;" parent="1" vertex="1">
                    <mxGeometry x="75" y="5340" width="290" height="100" as="geometry"/>
                </mxCell>
                <mxCell id="184" value="- _context: GameScreenState" style="text;strokeColor=none;fillColor=none;align=left;verticalAlign=top;spacingLeft=4;spacingRight=4;overflow=hidden;rotatable=0;points=[[0,0.5],[1,0.5]];portConstraint=eastwest;" parent="183" vertex="1">
                    <mxGeometry y="26" width="290" height="24" as="geometry"/>
                </mxCell>
                <mxCell id="185" value="" style="line;strokeWidth=1;fillColor=none;align=left;verticalAlign=middle;spacingTop=-1;spacingLeft=3;spacingRight=3;rotatable=0;labelPosition=right;points=[];portConstraint=eastwest;strokeColor=inherit;" parent="183" vertex="1">
                    <mxGeometry y="50" width="290" height="8" as="geometry"/>
                </mxCell>
                <mxCell id="186" value="+ Update()&#10;+ Draw()" style="text;strokeColor=none;fillColor=none;align=left;verticalAlign=top;spacingLeft=4;spacingRight=4;overflow=hidden;rotatable=0;points=[[0,0.5],[1,0.5]];portConstraint=eastwest;" parent="183" vertex="1">
                    <mxGeometry y="58" width="290" height="42" as="geometry"/>
                </mxCell>
                <mxCell id="215" style="edgeStyle=none;html=1;fontSize=18;endArrow=block;endFill=0;endSize=15;dashed=1;" parent="1" source="189" target="149" edge="1">
                    <mxGeometry relative="1" as="geometry"/>
                </mxCell>
                <mxCell id="189" value="TrainScreenState" style="swimlane;fontStyle=1;align=center;verticalAlign=top;childLayout=stackLayout;horizontal=1;startSize=26;horizontalStack=0;resizeParent=1;resizeParentMax=0;resizeLast=0;collapsible=1;marginBottom=0;" parent="1" vertex="1">
                    <mxGeometry x="795" y="4140" width="390" height="560" as="geometry"/>
                </mxCell>
                <mxCell id="190" value="- _population: Population&#10;- _neat: Neat&#10;- _obstacleManager: ObstacleManager&#10;- _environmentManager: EnvironmentManager&#10;- _score: double&#10;- _lastScoreMilestone: double&#10;- _gameSpeed: float&#10;- _gameSpeedIncrement: float&#10;- _networkDrawer: NetworkDrawer&#10;- _modelName: string&#10;- _errorMessage: string&#10;- _successMessage: string&#10;- _isFastForward: bool" style="text;strokeColor=none;fillColor=none;align=left;verticalAlign=top;spacingLeft=4;spacingRight=4;overflow=hidden;rotatable=0;points=[[0,0.5],[1,0.5]];portConstraint=eastwest;" parent="189" vertex="1">
                    <mxGeometry y="26" width="390" height="194" as="geometry"/>
                </mxCell>
                <mxCell id="191" value="" style="line;strokeWidth=1;fillColor=none;align=left;verticalAlign=middle;spacingTop=-1;spacingLeft=3;spacingRight=3;rotatable=0;labelPosition=right;points=[];portConstraint=eastwest;strokeColor=inherit;" parent="189" vertex="1">
                    <mxGeometry y="220" width="390" height="8" as="geometry"/>
                </mxCell>
                <mxCell id="192" value="+ TrainScreenState(EnvironmentManager envManager)&#10;&#10;+ Population:Population &lt;&lt;read-only property&gt;&gt;&#10;+ ObstacleManager: ObstacleManager &lt;&lt;read-only property&gt;&gt;&#10;+ EnvironmentManager: EnvironmentManager &lt;&lt;read-only property&gt;&gt;&#10;+ Buttons: Dictionary&lt;string, MyButton&gt; &lt;&lt;read-only property&gt;&gt;&#10;+ UIBitmaps: Dictionary&lt;string, Bitmap&gt; &lt;&lt;read-only property&gt;&gt;&#10;+ SuccessMessage: string &lt;&lt;property&gt;&gt;&#10;&#10;+ EnterState()&#10;+ Update()&#10;+ Draw()&#10;+ ExitState()&#10;+ SetState(ISubScreenState state)&#10;+ UpdateGameSpeed(float gameSpeed)&#10;+ ToggleFastForward()&#10;+ UpdateFrameRate()&#10;+ LoadNeatModel()&#10;+ SaveNeatModel()&#10;+ IsAllDead(): bool&#10;+ Reset()&#10;- DrawTrainingInfo()" style="text;strokeColor=none;fillColor=none;align=left;verticalAlign=top;spacingLeft=4;spacingRight=4;overflow=hidden;rotatable=0;points=[[0,0.5],[1,0.5]];portConstraint=eastwest;" parent="189" vertex="1">
                    <mxGeometry y="228" width="390" height="332" as="geometry"/>
                </mxCell>
                <mxCell id="236" style="edgeStyle=none;html=1;fontSize=18;endArrow=diamondThin;endFill=1;endSize=15;entryX=1.001;entryY=0.191;entryDx=0;entryDy=0;entryPerimeter=0;" parent="1" source="193" target="190" edge="1">
                    <mxGeometry relative="1" as="geometry">
                        <mxPoint x="1165" y="4197" as="targetPoint"/>
                    </mxGeometry>
                </mxCell>
                <mxCell id="244" value="1" style="edgeLabel;html=1;align=center;verticalAlign=middle;resizable=0;points=[];fontSize=18;" parent="236" vertex="1" connectable="0">
                    <mxGeometry x="-0.8311" y="-1" relative="1" as="geometry">
                        <mxPoint y="-14" as="offset"/>
                    </mxGeometry>
                </mxCell>
                <mxCell id="193" value="Population" style="swimlane;fontStyle=1;align=center;verticalAlign=top;childLayout=stackLayout;horizontal=1;startSize=26;horizontalStack=0;resizeParent=1;resizeParentMax=0;resizeLast=0;collapsible=1;marginBottom=0;" parent="1" vertex="1" collapsed="1">
                    <mxGeometry x="1310" y="4180" width="100" height="30" as="geometry">
                        <mxRectangle x="1970" y="3900" width="300" height="330" as="alternateBounds"/>
                    </mxGeometry>
                </mxCell>
                <mxCell id="194" value="- _sonics: Sonic[]&#10;- _generation: int&#10;- _bestSonicIndex: int&#10;- _alives: int&#10;- _bestFitness: double" style="text;strokeColor=none;fillColor=none;align=left;verticalAlign=top;spacingLeft=4;spacingRight=4;overflow=hidden;rotatable=0;points=[[0,0.5],[1,0.5]];portConstraint=eastwest;" parent="193" vertex="1">
                    <mxGeometry y="26" width="300" height="84" as="geometry"/>
                </mxCell>
                <mxCell id="195" value="" style="line;strokeWidth=1;fillColor=none;align=left;verticalAlign=middle;spacingTop=-1;spacingLeft=3;spacingRight=3;rotatable=0;labelPosition=right;points=[];portConstraint=eastwest;strokeColor=inherit;" parent="193" vertex="1">
                    <mxGeometry y="110" width="300" height="8" as="geometry"/>
                </mxCell>
                <mxCell id="196" value="+ Population(int populationSize)&#10;&#10;+ Data: Sonic[] &lt;&lt;read-only property&gt;&gt;&#10;+ Generation: int &lt;&lt;read-only property&gt;&gt;&#10;+ BestSonicIndex: int &lt;&lt;read-only property&gt;&gt;&#10;+ BestBrain: Genome &lt;&lt;read-only property&gt;&gt;&#10;+ Alives: int &lt;&lt;property&gt;&gt;&#10;+ BestFitness: double &lt;&lt;read-only property&gt;&gt;&#10;&#10;+ Update(List&lt;Obstacle&gt; obstacles)&#10;+ UpdateGameSpeed(float gameSpeed)&#10;+ Draw()&#10;+ Reset()&#10;+ LinkBrains(Neat neat)&#10;" style="text;strokeColor=none;fillColor=none;align=left;verticalAlign=top;spacingLeft=4;spacingRight=4;overflow=hidden;rotatable=0;points=[[0,0.5],[1,0.5]];portConstraint=eastwest;" parent="193" vertex="1">
                    <mxGeometry y="118" width="300" height="212" as="geometry"/>
                </mxCell>
                <mxCell id="237" style="edgeStyle=none;html=1;fontSize=18;endArrow=diamondThin;endFill=1;endSize=15;" parent="1" source="197" target="190" edge="1">
                    <mxGeometry relative="1" as="geometry">
                        <mxPoint x="1185" y="4245" as="targetPoint"/>
                    </mxGeometry>
                </mxCell>
                <mxCell id="245" value="1" style="edgeLabel;html=1;align=center;verticalAlign=middle;resizable=0;points=[];fontSize=18;" parent="237" vertex="1" connectable="0">
                    <mxGeometry x="-0.8517" y="-2" relative="1" as="geometry">
                        <mxPoint x="-2" y="-13" as="offset"/>
                    </mxGeometry>
                </mxCell>
                <mxCell id="197" value="Neat" style="swimlane;fontStyle=1;align=center;verticalAlign=top;childLayout=stackLayout;horizontal=1;startSize=26;horizontalStack=0;resizeParent=1;resizeParentMax=0;resizeLast=0;collapsible=1;marginBottom=0;" parent="1" vertex="1" collapsed="1">
                    <mxGeometry x="1325" y="4248" width="70" height="30" as="geometry">
                        <mxRectangle x="1910" y="3990" width="300" height="320" as="alternateBounds"/>
                    </mxGeometry>
                </mxCell>
                <mxCell id="198" value="- _inputSize: int&#10;- _outputSize: int&#10;- _species: List&lt;Species&gt;&#10;- _agents: List&lt;Agent&gt;&#10;- _innovationHistory: List&lt;ConnectionHistory&gt;" style="text;strokeColor=none;fillColor=none;align=left;verticalAlign=top;spacingLeft=4;spacingRight=4;overflow=hidden;rotatable=0;points=[[0,0.5],[1,0.5]];portConstraint=eastwest;" parent="197" vertex="1">
                    <mxGeometry y="26" width="300" height="84" as="geometry"/>
                </mxCell>
                <mxCell id="199" value="" style="line;strokeWidth=1;fillColor=none;align=left;verticalAlign=middle;spacingTop=-1;spacingLeft=3;spacingRight=3;rotatable=0;labelPosition=right;points=[];portConstraint=eastwest;strokeColor=inherit;" parent="197" vertex="1">
                    <mxGeometry y="110" width="300" height="8" as="geometry"/>
                </mxCell>
                <mxCell id="200" value="+ Neat(int inputSize, int ouputSize, int populationSize)&#10;&#10;+ Agents: List&lt;Agent&gt; &lt;&lt;read-only property&gt;&gt;&#10;&#10;- CreateSpecies()&#10;- SortSpecies()&#10;- KillWeakAgents()&#10;- KillUnfitSpecies()&#10;- KillExtinctSpecies()&#10;- CalculateAverageFitnessSum(): double&#10;- Reproduce()&#10;- SelectRandomSpecies()&#10;+ Evolve()" style="text;strokeColor=none;fillColor=none;align=left;verticalAlign=top;spacingLeft=4;spacingRight=4;overflow=hidden;rotatable=0;points=[[0,0.5],[1,0.5]];portConstraint=eastwest;" parent="197" vertex="1">
                    <mxGeometry y="118" width="300" height="202" as="geometry"/>
                </mxCell>
                <mxCell id="234" style="edgeStyle=none;html=1;fontSize=18;endArrow=diamondThin;endFill=1;endSize=15;" parent="1" source="201" target="161" edge="1">
                    <mxGeometry relative="1" as="geometry"/>
                </mxCell>
                <mxCell id="241" value="1" style="edgeLabel;html=1;align=center;verticalAlign=middle;resizable=0;points=[];fontSize=18;" parent="234" vertex="1" connectable="0">
                    <mxGeometry x="-0.9438" y="4" relative="1" as="geometry">
                        <mxPoint x="-4" y="20" as="offset"/>
                    </mxGeometry>
                </mxCell>
                <mxCell id="235" style="edgeStyle=none;html=1;fontSize=18;endArrow=diamondThin;endFill=1;endSize=15;" parent="1" source="201" target="189" edge="1">
                    <mxGeometry relative="1" as="geometry"/>
                </mxCell>
                <mxCell id="242" value="1" style="edgeLabel;html=1;align=center;verticalAlign=middle;resizable=0;points=[];fontSize=18;" parent="235" vertex="1" connectable="0">
                    <mxGeometry x="-0.8317" y="3" relative="1" as="geometry">
                        <mxPoint x="6" as="offset"/>
                    </mxGeometry>
                </mxCell>
                <mxCell id="201" value="ObstacleManager" style="swimlane;fontStyle=1;align=center;verticalAlign=top;childLayout=stackLayout;horizontal=1;startSize=26;horizontalStack=0;resizeParent=1;resizeParentMax=0;resizeLast=0;collapsible=1;marginBottom=0;" parent="1" vertex="1" collapsed="1">
                    <mxGeometry x="920" y="3950" width="140" height="30" as="geometry">
                        <mxRectangle x="1420" y="3720" width="270" height="280" as="alternateBounds"/>
                    </mxGeometry>
                </mxCell>
                <mxCell id="202" value="- _obstacles: List&lt;Obstacle&gt;&#10;- _obstacleTimer: Timer&#10;- _nextObstacleInterval: double&#10;- _gameSpeed: float&#10;" style="text;strokeColor=none;fillColor=none;align=left;verticalAlign=top;spacingLeft=4;spacingRight=4;overflow=hidden;rotatable=0;points=[[0,0.5],[1,0.5]];portConstraint=eastwest;" parent="201" vertex="1">
                    <mxGeometry y="26" width="270" height="74" as="geometry"/>
                </mxCell>
                <mxCell id="203" value="" style="line;strokeWidth=1;fillColor=none;align=left;verticalAlign=middle;spacingTop=-1;spacingLeft=3;spacingRight=3;rotatable=0;labelPosition=right;points=[];portConstraint=eastwest;strokeColor=inherit;" parent="201" vertex="1">
                    <mxGeometry y="100" width="270" height="8" as="geometry"/>
                </mxCell>
                <mxCell id="204" value="+ ObstacleSpawner(float gameSpeed)&#10;&#10;+ Obstacles: List&lt;Obstacle&gt;&#10;&#10;+ Update(Sonic sonic)&#10;+ Update(Population population, double score)&#10;+ UpdateGameSpeed(double speed)&#10;- SetNextObstacleInterval()&#10;+ Draw()&#10;+ RemoveOffScreen()&#10;+ Reset()&#10;&#10;" style="text;strokeColor=none;fillColor=none;align=left;verticalAlign=top;spacingLeft=4;spacingRight=4;overflow=hidden;rotatable=0;points=[[0,0.5],[1,0.5]];portConstraint=eastwest;" parent="201" vertex="1">
                    <mxGeometry y="108" width="270" height="172" as="geometry"/>
                </mxCell>
                <mxCell id="233" value="" style="edgeStyle=none;html=1;fontSize=18;endArrow=diamondThin;endFill=1;endSize=15;entryX=0.001;entryY=0.701;entryDx=0;entryDy=0;entryPerimeter=0;" parent="1" source="205" target="162" edge="1">
                    <mxGeometry relative="1" as="geometry"/>
                </mxCell>
                <mxCell id="243" value="1" style="edgeLabel;html=1;align=center;verticalAlign=middle;resizable=0;points=[];fontSize=18;" parent="233" vertex="1" connectable="0">
                    <mxGeometry x="-0.7931" y="2" relative="1" as="geometry">
                        <mxPoint x="5" y="-13" as="offset"/>
                    </mxGeometry>
                </mxCell>
                <mxCell id="205" value="Sonic" style="swimlane;fontStyle=1;align=center;verticalAlign=top;childLayout=stackLayout;horizontal=1;startSize=26;horizontalStack=0;resizeParent=1;resizeParentMax=0;resizeLast=0;collapsible=1;marginBottom=0;" parent="1" vertex="1" collapsed="1">
                    <mxGeometry x="-40" y="4270" width="70" height="30" as="geometry">
                        <mxRectangle x="350" y="4220" width="300" height="410" as="alternateBounds"/>
                    </mxGeometry>
                </mxCell>
                <mxCell id="206" value="- _isIdle: bool&#10;- _isJumping: bool&#10;- _isDucking: bool&#10;- _isHoldJump: bool&#10;- _velocityY: float&#10;- _floorY: float&#10;- _gravity: float&#10;- _brain: Agent" style="text;strokeColor=none;fillColor=none;align=left;verticalAlign=top;spacingLeft=4;spacingRight=4;overflow=hidden;rotatable=0;points=[[0,0.5],[1,0.5]];portConstraint=eastwest;" parent="205" vertex="1">
                    <mxGeometry y="26" width="300" height="124" as="geometry"/>
                </mxCell>
                <mxCell id="207" value="" style="line;strokeWidth=1;fillColor=none;align=left;verticalAlign=middle;spacingTop=-1;spacingLeft=3;spacingRight=3;rotatable=0;labelPosition=right;points=[];portConstraint=eastwest;strokeColor=inherit;" parent="205" vertex="1">
                    <mxGeometry y="150" width="300" height="8" as="geometry"/>
                </mxCell>
                <mxCell id="208" value="+ Sonic (float x, float y, float floorY, float gameSpeed)&#10;&#10;+ IsIdle: bool &lt;&lt;property&gt;&gt;&#10;+ IsDead: bool &lt;&lt;property&gt;&gt;&#10;+ IsJumping: bool &lt;&lt;read-only property&gt;&gt;&#10;+ IsDucking: bool &lt;&lt;read-only property&gt;&gt;&#10;&#10;+ Move(): &lt;&lt;override&gt;&gt;&#10;+ HandleInput()&#10;+ Jump()&#10;+ Duck()&#10;+ StopDucking()&#10;+ Run()&#10;+ See(List&lt;Obstacle&gt; obstacles)&#10;+ TakeAction()&#10;+ CalculateFitness()&#10;+ IsOnGround(): bool" style="text;strokeColor=none;fillColor=none;align=left;verticalAlign=top;spacingLeft=4;spacingRight=4;overflow=hidden;rotatable=0;points=[[0,0.5],[1,0.5]];portConstraint=eastwest;" parent="205" vertex="1">
                    <mxGeometry y="158" width="300" height="252" as="geometry"/>
                </mxCell>
                <mxCell id="250" style="edgeStyle=none;html=1;entryX=1.002;entryY=0.81;entryDx=0;entryDy=0;entryPerimeter=0;fontSize=18;endArrow=diamondThin;endFill=1;endSize=15;exitX=0.005;exitY=0.052;exitDx=0;exitDy=0;exitPerimeter=0;" parent="1" source="246" target="190" edge="1">
                    <mxGeometry relative="1" as="geometry"/>
                </mxCell>
                <mxCell id="251" value="1" style="edgeLabel;html=1;align=center;verticalAlign=middle;resizable=0;points=[];fontSize=18;" parent="250" vertex="1" connectable="0">
                    <mxGeometry x="-0.7548" relative="1" as="geometry">
                        <mxPoint y="-14" as="offset"/>
                    </mxGeometry>
                </mxCell>
                <mxCell id="246" value="NetworkDrawer" style="swimlane;fontStyle=1;align=center;verticalAlign=top;childLayout=stackLayout;horizontal=1;startSize=26;horizontalStack=0;resizeParent=1;resizeParentMax=0;resizeLast=0;collapsible=1;marginBottom=0;" parent="1" vertex="1">
                    <mxGeometry x="1295" y="4310" width="330" height="280" as="geometry"/>
                </mxCell>
                <mxCell id="247" value="- _inputLabels: string[]&#10;- _outputLabels: string[]&#10;- _x: double&#10;- _y: double&#10;- _panelWidth: double&#10;- _panelHeight: double" style="text;strokeColor=none;fillColor=none;align=left;verticalAlign=top;spacingLeft=4;spacingRight=4;overflow=hidden;rotatable=0;points=[[0,0.5],[1,0.5]];portConstraint=eastwest;" parent="246" vertex="1">
                    <mxGeometry y="26" width="330" height="104" as="geometry"/>
                </mxCell>
                <mxCell id="248" value="" style="line;strokeWidth=1;fillColor=none;align=left;verticalAlign=middle;spacingTop=-1;spacingLeft=3;spacingRight=3;rotatable=0;labelPosition=right;points=[];portConstraint=eastwest;strokeColor=inherit;" parent="246" vertex="1">
                    <mxGeometry y="130" width="330" height="8" as="geometry"/>
                </mxCell>
                <mxCell id="249" value="+ NetworkDrawer(string[] inputLabels, string[] outputLabels, &#10;                            double x, double y, &#10;                            double panelWidth, double panelHeight)&#10;&#10;+ Draw(Genome genome)&#10;- CalculateNodePositions(Genome g)&#10;- DrawNode(Node node)&#10;- DrawConnection(Connection connection)&#10;- DrawLabels()" style="text;strokeColor=none;fillColor=none;align=left;verticalAlign=top;spacingLeft=4;spacingRight=4;overflow=hidden;rotatable=0;points=[[0,0.5],[1,0.5]];portConstraint=eastwest;" parent="246" vertex="1">
                    <mxGeometry y="138" width="330" height="142" as="geometry"/>
                </mxCell>
                <mxCell id="296" style="edgeStyle=none;html=1;dashed=1;fontSize=20;endArrow=block;endFill=0;endSize=15;exitX=0;exitY=0.5;exitDx=0;exitDy=0;entryX=0.884;entryY=-0.011;entryDx=0;entryDy=0;entryPerimeter=0;" parent="1" source="257" target="166" edge="1">
                    <mxGeometry relative="1" as="geometry"/>
                </mxCell>
                <mxCell id="317" style="edgeStyle=none;html=1;fontSize=20;endArrow=classic;endFill=1;endSize=15;" parent="1" source="256" target="192" edge="1">
                    <mxGeometry relative="1" as="geometry"/>
                </mxCell>
                <mxCell id="256" value="LoadModelState" style="swimlane;fontStyle=1;align=center;verticalAlign=top;childLayout=stackLayout;horizontal=1;startSize=26;horizontalStack=0;resizeParent=1;resizeParentMax=0;resizeLast=0;collapsible=1;marginBottom=0;" parent="1" vertex="1">
                    <mxGeometry x="925" y="4845" width="290" height="100" as="geometry"/>
                </mxCell>
                <mxCell id="257" value="- _context: TrainScreenState" style="text;strokeColor=none;fillColor=none;align=left;verticalAlign=top;spacingLeft=4;spacingRight=4;overflow=hidden;rotatable=0;points=[[0,0.5],[1,0.5]];portConstraint=eastwest;" parent="256" vertex="1">
                    <mxGeometry y="26" width="290" height="24" as="geometry"/>
                </mxCell>
                <mxCell id="258" value="" style="line;strokeWidth=1;fillColor=none;align=left;verticalAlign=middle;spacingTop=-1;spacingLeft=3;spacingRight=3;rotatable=0;labelPosition=right;points=[];portConstraint=eastwest;strokeColor=inherit;" parent="256" vertex="1">
                    <mxGeometry y="50" width="290" height="8" as="geometry"/>
                </mxCell>
                <mxCell id="259" value="+ Update()&#10;+ Draw()" style="text;strokeColor=none;fillColor=none;align=left;verticalAlign=top;spacingLeft=4;spacingRight=4;overflow=hidden;rotatable=0;points=[[0,0.5],[1,0.5]];portConstraint=eastwest;" parent="256" vertex="1">
                    <mxGeometry y="58" width="290" height="42" as="geometry"/>
                </mxCell>
                <mxCell id="297" style="edgeStyle=none;html=1;dashed=1;fontSize=20;endArrow=block;endFill=0;endSize=15;" parent="1" source="260" target="166" edge="1">
                    <mxGeometry relative="1" as="geometry"/>
                </mxCell>
                <mxCell id="318" style="edgeStyle=none;html=1;exitX=1;exitY=0.25;exitDx=0;exitDy=0;fontSize=20;endArrow=classic;endFill=1;endSize=15;" parent="1" source="260" target="192" edge="1">
                    <mxGeometry relative="1" as="geometry">
                        <Array as="points">
                            <mxPoint x="1345" y="4830"/>
                        </Array>
                    </mxGeometry>
                </mxCell>
                <mxCell id="260" value="TrainingState" style="swimlane;fontStyle=1;align=center;verticalAlign=top;childLayout=stackLayout;horizontal=1;startSize=26;horizontalStack=0;resizeParent=1;resizeParentMax=0;resizeLast=0;collapsible=1;marginBottom=0;" parent="1" vertex="1">
                    <mxGeometry x="925" y="5035" width="290" height="100" as="geometry"/>
                </mxCell>
                <mxCell id="261" value="- _context: TrainScreenState" style="text;strokeColor=none;fillColor=none;align=left;verticalAlign=top;spacingLeft=4;spacingRight=4;overflow=hidden;rotatable=0;points=[[0,0.5],[1,0.5]];portConstraint=eastwest;" parent="260" vertex="1">
                    <mxGeometry y="26" width="290" height="24" as="geometry"/>
                </mxCell>
                <mxCell id="262" value="" style="line;strokeWidth=1;fillColor=none;align=left;verticalAlign=middle;spacingTop=-1;spacingLeft=3;spacingRight=3;rotatable=0;labelPosition=right;points=[];portConstraint=eastwest;strokeColor=inherit;" parent="260" vertex="1">
                    <mxGeometry y="50" width="290" height="8" as="geometry"/>
                </mxCell>
                <mxCell id="263" value="+ Update()&#10;+ Draw()" style="text;strokeColor=none;fillColor=none;align=left;verticalAlign=top;spacingLeft=4;spacingRight=4;overflow=hidden;rotatable=0;points=[[0,0.5],[1,0.5]];portConstraint=eastwest;" parent="260" vertex="1">
                    <mxGeometry y="58" width="290" height="42" as="geometry"/>
                </mxCell>
                <mxCell id="298" style="edgeStyle=none;html=1;dashed=1;fontSize=20;endArrow=block;endFill=0;endSize=15;" parent="1" source="264" target="166" edge="1">
                    <mxGeometry relative="1" as="geometry"/>
                </mxCell>
                <mxCell id="319" style="edgeStyle=none;html=1;exitX=1;exitY=0.25;exitDx=0;exitDy=0;fontSize=20;endArrow=classic;endFill=1;endSize=15;" parent="1" source="264" target="192" edge="1">
                    <mxGeometry relative="1" as="geometry">
                        <Array as="points">
                            <mxPoint x="1405" y="4800"/>
                        </Array>
                    </mxGeometry>
                </mxCell>
                <mxCell id="264" value="PausedState" style="swimlane;fontStyle=1;align=center;verticalAlign=top;childLayout=stackLayout;horizontal=1;startSize=26;horizontalStack=0;resizeParent=1;resizeParentMax=0;resizeLast=0;collapsible=1;marginBottom=0;" parent="1" vertex="1">
                    <mxGeometry x="925" y="5225" width="290" height="100" as="geometry"/>
                </mxCell>
                <mxCell id="265" value="- _context: TrainScreenState" style="text;strokeColor=none;fillColor=none;align=left;verticalAlign=top;spacingLeft=4;spacingRight=4;overflow=hidden;rotatable=0;points=[[0,0.5],[1,0.5]];portConstraint=eastwest;" parent="264" vertex="1">
                    <mxGeometry y="26" width="290" height="24" as="geometry"/>
                </mxCell>
                <mxCell id="266" value="" style="line;strokeWidth=1;fillColor=none;align=left;verticalAlign=middle;spacingTop=-1;spacingLeft=3;spacingRight=3;rotatable=0;labelPosition=right;points=[];portConstraint=eastwest;strokeColor=inherit;" parent="264" vertex="1">
                    <mxGeometry y="50" width="290" height="8" as="geometry"/>
                </mxCell>
                <mxCell id="267" value="+ Update()&#10;+ Draw()" style="text;strokeColor=none;fillColor=none;align=left;verticalAlign=top;spacingLeft=4;spacingRight=4;overflow=hidden;rotatable=0;points=[[0,0.5],[1,0.5]];portConstraint=eastwest;" parent="264" vertex="1">
                    <mxGeometry y="58" width="290" height="42" as="geometry"/>
                </mxCell>
                <mxCell id="286" style="edgeStyle=none;html=1;fontSize=20;endArrow=diamondThin;endFill=0;endSize=15;" parent="1" source="272" target="153" edge="1">
                    <mxGeometry relative="1" as="geometry"/>
                </mxCell>
                <mxCell id="289" value="*" style="edgeLabel;html=1;align=center;verticalAlign=middle;resizable=0;points=[];fontSize=20;" parent="286" vertex="1" connectable="0">
                    <mxGeometry x="-0.9662" y="-1" relative="1" as="geometry">
                        <mxPoint x="-5" y="-13" as="offset"/>
                    </mxGeometry>
                </mxCell>
                <mxCell id="287" style="edgeStyle=none;html=1;fontSize=20;endArrow=diamondThin;endFill=0;endSize=15;" parent="1" source="272" target="161" edge="1">
                    <mxGeometry relative="1" as="geometry"/>
                </mxCell>
                <mxCell id="290" value="*" style="edgeLabel;html=1;align=center;verticalAlign=middle;resizable=0;points=[];fontSize=20;" parent="287" vertex="1" connectable="0">
                    <mxGeometry x="-0.7686" y="-2" relative="1" as="geometry">
                        <mxPoint x="14" y="3" as="offset"/>
                    </mxGeometry>
                </mxCell>
                <mxCell id="288" style="edgeStyle=none;html=1;fontSize=20;endArrow=diamondThin;endFill=0;endSize=15;" parent="1" source="272" target="189" edge="1">
                    <mxGeometry relative="1" as="geometry"/>
                </mxCell>
                <mxCell id="291" value="*" style="edgeLabel;html=1;align=center;verticalAlign=middle;resizable=0;points=[];fontSize=20;" parent="288" vertex="1" connectable="0">
                    <mxGeometry x="-0.7669" y="-3" relative="1" as="geometry">
                        <mxPoint x="13" y="-8" as="offset"/>
                    </mxGeometry>
                </mxCell>
                <mxCell id="272" value="MyButton" style="swimlane;fontStyle=1;align=center;verticalAlign=top;childLayout=stackLayout;horizontal=1;startSize=26;horizontalStack=0;resizeParent=1;resizeParentMax=0;resizeLast=0;collapsible=1;marginBottom=0;" parent="1" vertex="1" collapsed="1">
                    <mxGeometry x="745" y="3920" width="100" height="30" as="geometry">
                        <mxRectangle x="-40" y="3990" width="290" height="220" as="alternateBounds"/>
                    </mxGeometry>
                </mxCell>
                <mxCell id="273" value="- _buttonBitmap: Bitmap&#10;- _x: double&#10;- _y: double" style="text;strokeColor=none;fillColor=none;align=left;verticalAlign=top;spacingLeft=4;spacingRight=4;overflow=hidden;rotatable=0;points=[[0,0.5],[1,0.5]];portConstraint=eastwest;" parent="272" vertex="1">
                    <mxGeometry y="26" width="290" height="54" as="geometry"/>
                </mxCell>
                <mxCell id="274" value="" style="line;strokeWidth=1;fillColor=none;align=left;verticalAlign=middle;spacingTop=-1;spacingLeft=3;spacingRight=3;rotatable=0;labelPosition=right;points=[];portConstraint=eastwest;strokeColor=inherit;" parent="272" vertex="1">
                    <mxGeometry y="80" width="290" height="8" as="geometry"/>
                </mxCell>
                <mxCell id="275" value="+ MyButton(string bitmapPath, double x, double y)&#10;&#10;+ X: double &lt;&lt;property&gt;&gt;&#10;+ Y: double &lt;&lt;property&gt;&gt;&#10;&#10;+ Draw()&#10;+ IsClicked(): bool&#10;+ IsHovered(): bool" style="text;strokeColor=none;fillColor=none;align=left;verticalAlign=top;spacingLeft=4;spacingRight=4;overflow=hidden;rotatable=0;points=[[0,0.5],[1,0.5]];portConstraint=eastwest;" parent="272" vertex="1">
                    <mxGeometry y="88" width="290" height="132" as="geometry"/>
                </mxCell>
                <mxCell id="280" style="edgeStyle=none;html=1;endArrow=diamondThin;endFill=0;endSize=15;" parent="1" source="276" target="153" edge="1">
                    <mxGeometry relative="1" as="geometry"/>
                </mxCell>
                <mxCell id="283" value="&lt;font style=&quot;font-size: 20px;&quot;&gt;*&lt;/font&gt;" style="edgeLabel;html=1;align=center;verticalAlign=middle;resizable=0;points=[];" parent="280" vertex="1" connectable="0">
                    <mxGeometry x="-0.9109" y="1" relative="1" as="geometry">
                        <mxPoint x="-23" y="10" as="offset"/>
                    </mxGeometry>
                </mxCell>
                <mxCell id="281" style="edgeStyle=none;html=1;endArrow=diamondThin;endFill=0;endSize=15;" parent="1" source="276" target="161" edge="1">
                    <mxGeometry relative="1" as="geometry"/>
                </mxCell>
                <mxCell id="284" value="*" style="edgeLabel;html=1;align=center;verticalAlign=middle;resizable=0;points=[];fontSize=20;" parent="281" vertex="1" connectable="0">
                    <mxGeometry x="-0.8817" y="-2" relative="1" as="geometry">
                        <mxPoint y="17" as="offset"/>
                    </mxGeometry>
                </mxCell>
                <mxCell id="282" style="edgeStyle=none;html=1;endArrow=diamondThin;endFill=0;endSize=15;" parent="1" source="276" target="190" edge="1">
                    <mxGeometry relative="1" as="geometry">
                        <Array as="points">
                            <mxPoint x="575" y="4100"/>
                        </Array>
                    </mxGeometry>
                </mxCell>
                <mxCell id="285" value="*" style="edgeLabel;html=1;align=center;verticalAlign=middle;resizable=0;points=[];fontSize=20;" parent="282" vertex="1" connectable="0">
                    <mxGeometry x="-0.9316" y="2" relative="1" as="geometry">
                        <mxPoint y="-17" as="offset"/>
                    </mxGeometry>
                </mxCell>
                <mxCell id="276" value="Bitmap" style="swimlane;fontStyle=1;align=center;verticalAlign=top;childLayout=stackLayout;horizontal=1;startSize=26;horizontalStack=0;resizeParent=1;resizeParentMax=0;resizeLast=0;collapsible=1;marginBottom=0;" parent="1" vertex="1" collapsed="1">
                    <mxGeometry x="-75" y="3920" width="80" height="30" as="geometry">
                        <mxRectangle x="-40" y="4270" width="160" height="34" as="alternateBounds"/>
                    </mxGeometry>
                </mxCell>
                <mxCell id="278" value="" style="line;strokeWidth=1;fillColor=none;align=left;verticalAlign=middle;spacingTop=-1;spacingLeft=3;spacingRight=3;rotatable=0;labelPosition=right;points=[];portConstraint=eastwest;strokeColor=inherit;" parent="276" vertex="1">
                    <mxGeometry y="26" width="160" height="8" as="geometry"/>
                </mxCell>
                <mxCell id="382" style="edgeStyle=none;html=1;entryX=0.001;entryY=0.144;entryDx=0;entryDy=0;entryPerimeter=0;fontSize=20;endArrow=diamondThin;endFill=0;endSize=15;exitX=1;exitY=0.25;exitDx=0;exitDy=0;" parent="1" source="333" target="352" edge="1">
                    <mxGeometry relative="1" as="geometry"/>
                </mxCell>
                <mxCell id="383" value="1" style="edgeLabel;html=1;align=center;verticalAlign=middle;resizable=0;points=[];fontSize=20;" parent="382" vertex="1" connectable="0">
                    <mxGeometry x="-0.9047" y="2" relative="1" as="geometry">
                        <mxPoint y="-18" as="offset"/>
                    </mxGeometry>
                </mxCell>
                <mxCell id="333" value="&lt;&lt;interface&gt;&gt;&#10;IGameObjectFactory" style="swimlane;fontStyle=1;align=center;verticalAlign=top;childLayout=stackLayout;horizontal=1;startSize=40;horizontalStack=0;resizeParent=1;resizeParentMax=0;resizeLast=0;collapsible=1;marginBottom=0;" parent="1" vertex="1">
                    <mxGeometry x="-507.5" y="1100" width="490" height="80" as="geometry"/>
                </mxCell>
                <mxCell id="335" value="" style="line;strokeWidth=1;fillColor=none;align=left;verticalAlign=middle;spacingTop=-1;spacingLeft=3;spacingRight=3;rotatable=0;labelPosition=right;points=[];portConstraint=eastwest;strokeColor=inherit;" parent="333" vertex="1">
                    <mxGeometry y="40" width="490" height="8" as="geometry"/>
                </mxCell>
                <mxCell id="336" value="+ CreateGameObject(GameObjectType, float gameSpeed, float x, float y): GameObject" style="text;strokeColor=none;fillColor=none;align=left;verticalAlign=top;spacingLeft=4;spacingRight=4;overflow=hidden;rotatable=0;points=[[0,0.5],[1,0.5]];portConstraint=eastwest;" parent="333" vertex="1">
                    <mxGeometry y="48" width="490" height="32" as="geometry"/>
                </mxCell>
                <mxCell id="375" style="edgeStyle=none;html=1;fontSize=20;endArrow=block;endFill=0;endSize=15;dashed=1;" parent="1" source="343" target="333" edge="1">
                    <mxGeometry relative="1" as="geometry"/>
                </mxCell>
                <mxCell id="343" value="EnvironmentFactory" style="swimlane;fontStyle=1;align=center;verticalAlign=top;childLayout=stackLayout;horizontal=1;startSize=26;horizontalStack=0;resizeParent=1;resizeParentMax=0;resizeLast=0;collapsible=1;marginBottom=0;" parent="1" vertex="1">
                    <mxGeometry x="-830" y="1270" width="490" height="80" as="geometry"/>
                </mxCell>
                <mxCell id="344" value="" style="line;strokeWidth=1;fillColor=none;align=left;verticalAlign=middle;spacingTop=-1;spacingLeft=3;spacingRight=3;rotatable=0;labelPosition=right;points=[];portConstraint=eastwest;strokeColor=inherit;" parent="343" vertex="1">
                    <mxGeometry y="26" width="490" height="8" as="geometry"/>
                </mxCell>
                <mxCell id="345" value="+ CreateGameObject(GameObjectType, float gameSpeed, float x, float y): GameObject&#10;- CreateCloud(float x, float y): GameObject" style="text;strokeColor=none;fillColor=none;align=left;verticalAlign=top;spacingLeft=4;spacingRight=4;overflow=hidden;rotatable=0;points=[[0,0.5],[1,0.5]];portConstraint=eastwest;" parent="343" vertex="1">
                    <mxGeometry y="34" width="490" height="46" as="geometry"/>
                </mxCell>
                <mxCell id="376" style="edgeStyle=none;html=1;dashed=1;fontSize=20;endArrow=block;endFill=0;endSize=15;" parent="1" source="346" target="333" edge="1">
                    <mxGeometry relative="1" as="geometry"/>
                </mxCell>
                <mxCell id="346" value="ObstacleFactory" style="swimlane;fontStyle=1;align=center;verticalAlign=top;childLayout=stackLayout;horizontal=1;startSize=26;horizontalStack=0;resizeParent=1;resizeParentMax=0;resizeLast=0;collapsible=1;marginBottom=0;" parent="1" vertex="1">
                    <mxGeometry x="-310" y="1270" width="485" height="80" as="geometry"/>
                </mxCell>
                <mxCell id="347" value="" style="line;strokeWidth=1;fillColor=none;align=left;verticalAlign=middle;spacingTop=-1;spacingLeft=3;spacingRight=3;rotatable=0;labelPosition=right;points=[];portConstraint=eastwest;strokeColor=inherit;" parent="346" vertex="1">
                    <mxGeometry y="26" width="485" height="8" as="geometry"/>
                </mxCell>
                <mxCell id="348" value="+ CreateGameObject(GameObjectType, float gameSpeed, float x, float y): GameObject&#10;- CreateBat(float x, float gameSpeed): GameObject" style="text;strokeColor=none;fillColor=none;align=left;verticalAlign=top;spacingLeft=4;spacingRight=4;overflow=hidden;rotatable=0;points=[[0,0.5],[1,0.5]];portConstraint=eastwest;" parent="346" vertex="1">
                    <mxGeometry y="34" width="485" height="46" as="geometry"/>
                </mxCell>
                <mxCell id="384" style="edgeStyle=none;html=1;exitX=1;exitY=0.25;exitDx=0;exitDy=0;fontSize=20;endArrow=diamondThin;endFill=0;endSize=15;" parent="1" source="349" target="365" edge="1">
                    <mxGeometry relative="1" as="geometry"/>
                </mxCell>
                <mxCell id="385" value="1" style="edgeLabel;html=1;align=center;verticalAlign=middle;resizable=0;points=[];fontSize=20;" parent="384" vertex="1" connectable="0">
                    <mxGeometry x="-0.8724" y="1" relative="1" as="geometry">
                        <mxPoint x="-4" y="-22" as="offset"/>
                    </mxGeometry>
                </mxCell>
                <mxCell id="349" value="&lt;&lt;interface&gt;&gt;&#10;ISpawnStrategy" style="swimlane;fontStyle=1;align=center;verticalAlign=top;childLayout=stackLayout;horizontal=1;startSize=40;horizontalStack=0;resizeParent=1;resizeParentMax=0;resizeLast=0;collapsible=1;marginBottom=0;" parent="1" vertex="1">
                    <mxGeometry x="185" y="930" width="440" height="90" as="geometry"/>
                </mxCell>
                <mxCell id="350" value="" style="line;strokeWidth=1;fillColor=none;align=left;verticalAlign=middle;spacingTop=-1;spacingLeft=3;spacingRight=3;rotatable=0;labelPosition=right;points=[];portConstraint=eastwest;strokeColor=inherit;" parent="349" vertex="1">
                    <mxGeometry y="40" width="440" height="8" as="geometry"/>
                </mxCell>
                <mxCell id="351" value="+ GameObject(float gameSpeed, float screenWidth): GameObject&#10;+ CalculateNextSpawnInterval(Random random): float" style="text;strokeColor=none;fillColor=none;align=left;verticalAlign=top;spacingLeft=4;spacingRight=4;overflow=hidden;rotatable=0;points=[[0,0.5],[1,0.5]];portConstraint=eastwest;" parent="349" vertex="1">
                    <mxGeometry y="48" width="440" height="42" as="geometry"/>
                </mxCell>
                <mxCell id="378" style="edgeStyle=none;html=1;dashed=1;fontSize=20;endArrow=block;endFill=0;endSize=15;" parent="1" source="352" target="349" edge="1">
                    <mxGeometry relative="1" as="geometry"/>
                </mxCell>
                <mxCell id="352" value="&lt;&lt;abstract&gt;&gt;&#10;SpawnStrategyBase" style="swimlane;fontStyle=1;align=center;verticalAlign=top;childLayout=stackLayout;horizontal=1;startSize=40;horizontalStack=0;resizeParent=1;resizeParentMax=0;resizeLast=0;collapsible=1;marginBottom=0;" parent="1" vertex="1">
                    <mxGeometry x="195" y="1094" width="440" height="180" as="geometry"/>
                </mxCell>
                <mxCell id="353" value="- _factory: IGameObjectFactory" style="text;strokeColor=none;fillColor=none;align=left;verticalAlign=top;spacingLeft=4;spacingRight=4;overflow=hidden;rotatable=0;points=[[0,0.5],[1,0.5]];portConstraint=eastwest;" parent="352" vertex="1">
                    <mxGeometry y="40" width="440" height="30" as="geometry"/>
                </mxCell>
                <mxCell id="354" value="" style="line;strokeWidth=1;fillColor=none;align=left;verticalAlign=middle;spacingTop=-1;spacingLeft=3;spacingRight=3;rotatable=0;labelPosition=right;points=[];portConstraint=eastwest;strokeColor=inherit;" parent="352" vertex="1">
                    <mxGeometry y="70" width="440" height="8" as="geometry"/>
                </mxCell>
                <mxCell id="355" value="+ SpawnStrategyBase(IGameObjectFactory factory)&#10;&#10;+ Factory: IGameObjectFactory &lt;&lt;read-only property&gt;&gt;&#10;&#10;+ GameObject(float gameSpeed, float screenWidth): GameObject &lt;&lt;abstract&gt;&gt;&#10;+ CalculateNextSpawnInterval(Random random): float  &lt;&lt;abstract&gt;&gt;" style="text;strokeColor=none;fillColor=none;align=left;verticalAlign=top;spacingLeft=4;spacingRight=4;overflow=hidden;rotatable=0;points=[[0,0.5],[1,0.5]];portConstraint=eastwest;" parent="352" vertex="1">
                    <mxGeometry y="78" width="440" height="102" as="geometry"/>
                </mxCell>
                <mxCell id="377" style="edgeStyle=none;html=1;fontSize=20;endArrow=block;endFill=0;endSize=15;" parent="1" source="357" target="352" edge="1">
                    <mxGeometry relative="1" as="geometry"/>
                </mxCell>
                <mxCell id="357" value="CloudSpawnStrategy" style="swimlane;fontStyle=1;align=center;verticalAlign=top;childLayout=stackLayout;horizontal=1;startSize=30;horizontalStack=0;resizeParent=1;resizeParentMax=0;resizeLast=0;collapsible=1;marginBottom=0;" parent="1" vertex="1">
                    <mxGeometry x="-40" y="1430" width="440" height="120" as="geometry"/>
                </mxCell>
                <mxCell id="359" value="" style="line;strokeWidth=1;fillColor=none;align=left;verticalAlign=middle;spacingTop=-1;spacingLeft=3;spacingRight=3;rotatable=0;labelPosition=right;points=[];portConstraint=eastwest;strokeColor=inherit;" parent="357" vertex="1">
                    <mxGeometry y="30" width="440" height="8" as="geometry"/>
                </mxCell>
                <mxCell id="360" value="+ CloudSpawnStrategy(IGameObjectFactory factory)&#10;&#10;+ GameObject(float gameSpeed, float screenWidth): GameObject &lt;&lt;override&gt;&gt;&#10;+ CalculateNextSpawnInterval(Random random): float  &lt;&lt;override&gt;&gt;" style="text;strokeColor=none;fillColor=none;align=left;verticalAlign=top;spacingLeft=4;spacingRight=4;overflow=hidden;rotatable=0;points=[[0,0.5],[1,0.5]];portConstraint=eastwest;" parent="357" vertex="1">
                    <mxGeometry y="38" width="440" height="82" as="geometry"/>
                </mxCell>
                <mxCell id="379" style="edgeStyle=none;html=1;fontSize=20;endArrow=block;endFill=0;endSize=15;" parent="1" source="361" target="352" edge="1">
                    <mxGeometry relative="1" as="geometry"/>
                </mxCell>
                <mxCell id="361" value="ObstacleSpawnStrategy" style="swimlane;fontStyle=1;align=center;verticalAlign=top;childLayout=stackLayout;horizontal=1;startSize=30;horizontalStack=0;resizeParent=1;resizeParentMax=0;resizeLast=0;collapsible=1;marginBottom=0;" parent="1" vertex="1">
                    <mxGeometry x="440" y="1430" width="440" height="120" as="geometry"/>
                </mxCell>
                <mxCell id="362" value="" style="line;strokeWidth=1;fillColor=none;align=left;verticalAlign=middle;spacingTop=-1;spacingLeft=3;spacingRight=3;rotatable=0;labelPosition=right;points=[];portConstraint=eastwest;strokeColor=inherit;" parent="361" vertex="1">
                    <mxGeometry y="30" width="440" height="8" as="geometry"/>
                </mxCell>
                <mxCell id="363" value="+ ObstacleSpawnStrategy(IGameObjectFactory factory)&#10;&#10;+ GameObject(float gameSpeed, float screenWidth): GameObject &lt;&lt;override&gt;&gt;&#10;+ CalculateNextSpawnInterval(Random random): float  &lt;&lt;override&gt;&gt;&#10;- GetRandomObstacleType(): GameObjectType" style="text;strokeColor=none;fillColor=none;align=left;verticalAlign=top;spacingLeft=4;spacingRight=4;overflow=hidden;rotatable=0;points=[[0,0.5],[1,0.5]];portConstraint=eastwest;fontStyle=0" parent="361" vertex="1">
                    <mxGeometry y="38" width="440" height="82" as="geometry"/>
                </mxCell>
                <mxCell id="364" value="&lt;&lt;abstract&gt;&gt;&#10;ObjectManagerBase" style="swimlane;fontStyle=1;align=center;verticalAlign=top;childLayout=stackLayout;horizontal=1;startSize=40;horizontalStack=0;resizeParent=1;resizeParentMax=0;resizeLast=0;collapsible=1;marginBottom=0;" parent="1" vertex="1">
                    <mxGeometry x="890" y="880" width="440" height="330" as="geometry"/>
                </mxCell>
                <mxCell id="365" value="- _gameObjects: List&lt;GameObject&gt;&#10;- _gameSpeed: float&#10;- _spawnStrategy: ISpawnStrategy&#10;- _nextSpawnInterval: double" style="text;strokeColor=none;fillColor=none;align=left;verticalAlign=top;spacingLeft=4;spacingRight=4;overflow=hidden;rotatable=0;points=[[0,0.5],[1,0.5]];portConstraint=eastwest;" parent="364" vertex="1">
                    <mxGeometry y="40" width="440" height="70" as="geometry"/>
                </mxCell>
                <mxCell id="366" value="" style="line;strokeWidth=1;fillColor=none;align=left;verticalAlign=middle;spacingTop=-1;spacingLeft=3;spacingRight=3;rotatable=0;labelPosition=right;points=[];portConstraint=eastwest;strokeColor=inherit;" parent="364" vertex="1">
                    <mxGeometry y="110" width="440" height="8" as="geometry"/>
                </mxCell>
                <mxCell id="367" value="+ ObjectManagerBase(float gameSpeed, ISpawnStrategy spawnStrategy)&#10;&#10;+ GameObjects: List&lt;GameObject&gt; &lt;&lt;read-only property&gt;&gt;&#10;+ NextSpawnInterval: double: &lt;&lt;property&gt;&gt;&#10;+ GameSpeed: float &lt;&lt;read-only property&gt;&gt;&#10;&#10;+ Update(): &lt;&lt;virtual&gt;&gt;&#10;+ UpdateGameObjects(): &lt;&lt;virtual&gt;&gt;&#10;+ UpdateGameSpeed(float gameSpeed): &lt;&lt;virtual&gt;&gt;&#10;+ RemoveOffScreenObjects(): &lt;&lt;virtual&gt;&gt;&#10;+ CheckSpawnTimer(): &lt;&lt;virtual&gt;&gt;&#10;+ ShouldSpawn(): bool &lt;&lt;abstract&gt;&gt;&#10;+ SpawnNewObject()&#10;+ Draw(): &lt;&lt;virtual&gt;&gt;" style="text;strokeColor=none;fillColor=none;align=left;verticalAlign=top;spacingLeft=4;spacingRight=4;overflow=hidden;rotatable=0;points=[[0,0.5],[1,0.5]];portConstraint=eastwest;" parent="364" vertex="1">
                    <mxGeometry y="118" width="440" height="212" as="geometry"/>
                </mxCell>
                <mxCell id="380" style="edgeStyle=none;html=1;fontSize=20;endArrow=block;endFill=0;endSize=15;" parent="1" source="368" target="364" edge="1">
                    <mxGeometry relative="1" as="geometry"/>
                </mxCell>
                <mxCell id="368" value="EnvironmentManager" style="swimlane;fontStyle=1;align=center;verticalAlign=top;childLayout=stackLayout;horizontal=1;startSize=30;horizontalStack=0;resizeParent=1;resizeParentMax=0;resizeLast=0;collapsible=1;marginBottom=0;" parent="1" vertex="1">
                    <mxGeometry x="730" y="1280" width="440" height="100" as="geometry"/>
                </mxCell>
                <mxCell id="369" value="" style="line;strokeWidth=1;fillColor=none;align=left;verticalAlign=middle;spacingTop=-1;spacingLeft=3;spacingRight=3;rotatable=0;labelPosition=right;points=[];portConstraint=eastwest;strokeColor=inherit;" parent="368" vertex="1">
                    <mxGeometry y="30" width="440" height="8" as="geometry"/>
                </mxCell>
                <mxCell id="370" value="+ EnvironmentManager(float gameSpeed)&#10;&#10;+ ShouldSpawn(): &lt;&lt;override&gt;&gt;" style="text;strokeColor=none;fillColor=none;align=left;verticalAlign=top;spacingLeft=4;spacingRight=4;overflow=hidden;rotatable=0;points=[[0,0.5],[1,0.5]];portConstraint=eastwest;fontStyle=0" parent="368" vertex="1">
                    <mxGeometry y="38" width="440" height="62" as="geometry"/>
                </mxCell>
                <mxCell id="381" style="edgeStyle=none;html=1;fontSize=20;endArrow=block;endFill=0;endSize=15;" parent="1" source="371" target="364" edge="1">
                    <mxGeometry relative="1" as="geometry"/>
                </mxCell>
                <mxCell id="371" value="ObstacleManager" style="swimlane;fontStyle=1;align=center;verticalAlign=top;childLayout=stackLayout;horizontal=1;startSize=30;horizontalStack=0;resizeParent=1;resizeParentMax=0;resizeLast=0;collapsible=1;marginBottom=0;" parent="1" vertex="1">
                    <mxGeometry x="1220" y="1280" width="440" height="180" as="geometry"/>
                </mxCell>
                <mxCell id="372" value="" style="line;strokeWidth=1;fillColor=none;align=left;verticalAlign=middle;spacingTop=-1;spacingLeft=3;spacingRight=3;rotatable=0;labelPosition=right;points=[];portConstraint=eastwest;strokeColor=inherit;" parent="371" vertex="1">
                    <mxGeometry y="30" width="440" height="8" as="geometry"/>
                </mxCell>
                <mxCell id="373" value="+ ObstacleManager(float gameSpeed)&#10;&#10;+ Obstacles: List&lt;Obstacle&gt; &lt;&lt;read-only property&gt;&gt;&#10;&#10;+ ShouldSpawn(): &lt;&lt;override&gt;&gt;&#10;+ Update(Sonic sonic)&#10;+ Update(Population population)&#10;+ IsColliding(Sonic sonic): bool&#10;+ Reset()" style="text;strokeColor=none;fillColor=none;align=left;verticalAlign=top;spacingLeft=4;spacingRight=4;overflow=hidden;rotatable=0;points=[[0,0.5],[1,0.5]];portConstraint=eastwest;fontStyle=0" parent="371" vertex="1">
                    <mxGeometry y="38" width="440" height="142" as="geometry"/>
                </mxCell>
                <mxCell id="387" style="edgeStyle=none;html=1;fontSize=20;endArrow=diamondThin;endFill=0;endSize=15;" parent="1" source="5" target="364" edge="1">
                    <mxGeometry relative="1" as="geometry">
                        <Array as="points">
                            <mxPoint x="860" y="750"/>
                        </Array>
                    </mxGeometry>
                </mxCell>
                <mxCell id="388" value="*" style="edgeLabel;html=1;align=center;verticalAlign=middle;resizable=0;points=[];fontSize=20;" parent="387" vertex="1" connectable="0">
                    <mxGeometry x="-0.9265" y="1" relative="1" as="geometry">
                        <mxPoint x="14" y="-11" as="offset"/>
                    </mxGeometry>
                </mxCell>
                <mxCell id="400" value="IPrototype&lt;T&gt;" style="swimlane;fontStyle=1;align=center;verticalAlign=top;childLayout=stackLayout;horizontal=1;startSize=26;horizontalStack=0;resizeParent=1;resizeParentMax=0;resizeLast=0;collapsible=1;marginBottom=0;" vertex="1" parent="1">
                    <mxGeometry x="825" y="1640" width="190" height="70" as="geometry"/>
                </mxCell>
                <mxCell id="402" value="" style="line;strokeWidth=1;fillColor=none;align=left;verticalAlign=middle;spacingTop=-1;spacingLeft=3;spacingRight=3;rotatable=0;labelPosition=right;points=[];portConstraint=eastwest;strokeColor=inherit;" vertex="1" parent="400">
                    <mxGeometry y="26" width="190" height="8" as="geometry"/>
                </mxCell>
                <mxCell id="403" value="+ Clone(): T" style="text;strokeColor=none;fillColor=none;align=left;verticalAlign=top;spacingLeft=4;spacingRight=4;overflow=hidden;rotatable=0;points=[[0,0.5],[1,0.5]];portConstraint=eastwest;" vertex="1" parent="400">
                    <mxGeometry y="34" width="190" height="36" as="geometry"/>
                </mxCell>
            </root>
        </mxGraphModel>
    </diagram>
</mxfile>